<svg xmlns="http://www.w3.org/2000/svg" viewBox="0 0 1366 768"><defs><style>.cls-1{fill:#f5f4e6;}.cls-2{fill:#32c1fd;}.cls-3{fill:#2da1c9;}.cls-4{fill:#6d919f;}.cls-5{fill:#4f6a72;}.cls-6{fill:#f2f2f2;}.cls-7{fill:#fff;}.cls-8{fill:#e6e6e6;stroke-width:2px;}.cls-33,.cls-8{stroke:#fff;}.cls-10,.cls-11,.cls-13,.cls-33,.cls-8,.cls-9{stroke-miterlimit:10;}.cls-10,.cls-11,.cls-13,.cls-32,.cls-33,.cls-9{fill:none;}.cls-10,.cls-11,.cls-9{stroke:#999;}.cls-10{stroke-dasharray:10.59 10.59 8.82 10.59;}.cls-11{stroke-dasharray:10.59 8.82 10.59 10.59 8.82 10.59;}.cls-12{fill:#39b6a8;}.cls-13{stroke:#4d4d4d;}.cls-14{fill:#999;}.cls-15{fill:#eab9b0;}.cls-16{fill:#c49a95;}.cls-17{fill:#5b2e28;}.cls-18{fill:#1a2d34;}.cls-19{fill:#826562;}.cls-20{fill:#231210;}.cls-21{fill:#486e7b;}.cls-22{fill:#2697bf;}.cls-23{fill:#38565e;}.cls-24{fill:#b3b3b3;}.cls-25{fill:#9b7975;}.cls-26{fill:#2786a0;}.cls-27{fill:#277a6e;}.cls-28{fill:#e3c3a8;}.cls-29{fill:#0974cc;}.cls-30{fill:#fad7bb;}.cls-31{fill:#075991;}.cls-34{fill:#f5f5f5;}.cls-35{fill:#bca28f;}.cls-36{fill:#d3fbfd;}.cls-37{fill:#baddeb;}.cls-38{fill:#ccc;}.cls-39{fill:#40caf1;}.cls-40{fill:#2f8e7e;}.cls-41{fill:#d4ebf4;}.cls-42{fill:#a6c5d1;}.cls-43{fill:#aad2e2;}.cls-44{fill:#dceaef;}.cls-45{fill:#36a898;}</style></defs><title>fondo</title><g id="Capa_2" data-name="Capa 2"><g id="Capa_1-2" data-name="Capa 1"><rect class="cls-1" width="1366" height="768"/><path class="cls-2" d="M70,333.76a63.46,63.46,0,0,0-14.36,8.1c-12.52,9.63-20,25-21.52,40.73s2.67,31.68,10.22,45.55c6.4,11.75,14.57,22,19.08,34.54,5.16,14.35,7.76,29.72,14.43,43.51,41.62,86,167.61,16.3,237.22,26.62,11.89,1.76,24.8,5.89,36.64,3.61,10.74-2.06,22.12-9.41,30.8-15.74a110.19,110.19,0,0,0,39.59-53.56c7.61-22.89,7.48-47.9,16.06-70.44,4.56-12,11.51-23.07,14.66-35.49,7.77-30.61-8.89-62-28.39-86.84-10.93-13.93-24.77-27.94-42.42-29.3-15.61-1.2-30.3,8.06-41,19.51s-18.57,25.22-28.83,37c-20.65,23.78-48.33,34.71-78,42.73-31.13,8.42-57.83,4.78-87.66-4-23.82-7-50-16.73-74.14-7.52C71.6,333.1,70.79,333.43,70,333.76Z"/><path class="cls-3" d="M209.67,488.79c-2.33.31-4.66.59-7,.92-2.7.38-7.58.3-9.62,2.31,6.4.15,13.17-1.63,19.61-2l22.52-1.45A2.37,2.37,0,0,1,238,490l2.56,4.1a4,4,0,0,0,1.53,1.64c2.54,1.14,4.67-5.2,5.4-6.68a1.39,1.39,0,0,1,.49-.63,1.28,1.28,0,0,1,.73-.09c3.35.24,6.66.91,10,1.14,3.64.25,7.34.11,11,.27a166.32,166.32,0,0,1,22.82,2.55c-1.52-2.32-4.63-2.86-7.39-3.19-13.48-1.62-27.45-2.24-40.31-6.9a8.06,8.06,0,0,0-2.49-.62,7.43,7.43,0,0,0-2.13.36L232.43,484c-5.51,1.46-11,2.93-16.64,3.9C213.76,488.24,211.71,488.52,209.67,488.79Z"/><rect class="cls-4" x="239.84" y="375.37" width="6.77" height="93.69"/><rect class="cls-4" x="267.43" y="451.18" width="3.29" height="55.52" transform="translate(-278.7 520.39) rotate(-65)"/><polygon class="cls-4" points="245.51 496.73 240.91 496.73 242.5 441.21 244.29 441.21 245.51 496.73"/><rect class="cls-4" x="215.73" y="451.18" width="3.29" height="55.52" transform="translate(-124.82 878.35) rotate(-115)"/><ellipse class="cls-4" cx="193.15" cy="490.23" rx="3.29" ry="2.81"/><ellipse class="cls-4" cx="243.23" cy="494.42" rx="4.11" ry="3.5"/><ellipse class="cls-4" cx="293.27" cy="490.22" rx="3.29" ry="2.81"/><path class="cls-5" d="M239.12,494.42s4.08,5.89,8.21,0c0,0,.08,3.31-4.1,3.5C243.23,497.92,239.28,497.82,239.12,494.42Z"/><path class="cls-5" d="M196.44,490.23s-2.57,3.43-6.07,1.5c0,0,1.38,2.13,4.34,1A2.84,2.84,0,0,0,196.44,490.23Z"/><path class="cls-5" d="M290.14,489.35s1,4.41,5.31,3a3.57,3.57,0,0,1-4.18.12A2.65,2.65,0,0,1,290.14,489.35Z"/><polygon class="cls-5" points="241.69 469.41 241.69 466.68 238.5 470.9 241.69 469.41"/><polygon class="cls-5" points="244.87 467.36 248.64 471.22 244.87 469.44 244.87 467.36"/><path class="cls-5" d="M241.06,491.45a4,4,0,0,1,1.09-.41L241.6,474Z"/><rect class="cls-5" x="239.84" y="405.54" width="6.77" height="18.53"/><path class="cls-6" d="M128.06,213.68H358.7a7.22,7.22,0,0,1,7.22,7.22V413a6.48,6.48,0,0,1-6.48,6.48H127a6.48,6.48,0,0,1-6.48-6.48V221.22A7.53,7.53,0,0,1,128.06,213.68Z"/><path class="cls-2" d="M128.16,214.09h229.7a7.62,7.62,0,0,1,7.62,7.62v6.55a1,1,0,0,1-1,1H121.92a1,1,0,0,1-1-1v-6.91A7.26,7.26,0,0,1,128.16,214.09Z"/><circle class="cls-7" cx="319.9" cy="221.56" r="3.17"/><circle class="cls-7" cx="333.11" cy="221.56" r="3.17"/><circle class="cls-7" cx="346.05" cy="221.56" r="3.17"/><rect class="cls-8" x="157.5" y="242.7" width="169.63" height="162.55" rx="6.84"/><line class="cls-9" x1="182.68" y1="272.48" x2="191.68" y2="272.48"/><line class="cls-10" x1="200.51" y1="272.48" x2="235.79" y2="272.48"/><line class="cls-11" x1="241.09" y1="272.48" x2="295.78" y2="272.48"/><line class="cls-9" x1="301.07" y1="272.48" x2="310.07" y2="272.48"/><line class="cls-9" x1="182.68" y1="293.73" x2="191.68" y2="293.73"/><line class="cls-10" x1="200.51" y1="293.73" x2="235.79" y2="293.73"/><line class="cls-11" x1="241.09" y1="293.73" x2="295.78" y2="293.73"/><line class="cls-9" x1="301.07" y1="293.73" x2="310.07" y2="293.73"/><line class="cls-9" x1="182.68" y1="312.89" x2="191.68" y2="312.89"/><line class="cls-10" x1="200.51" y1="312.89" x2="235.79" y2="312.89"/><line class="cls-11" x1="241.09" y1="312.89" x2="295.78" y2="312.89"/><line class="cls-9" x1="301.07" y1="312.89" x2="310.07" y2="312.89"/><line class="cls-9" x1="182.68" y1="332.04" x2="310.07" y2="332.04"/><polygon class="cls-12" points="309.02 330.33 309.02 349.49 182.69 349.49 182.69 271.82 198.56 278.38 210.37 292.81 226.9 259.49 242.9 289.14 252.61 280.75 266.52 304.62 274.91 295.96 289.87 322 298 313.54 309.02 330.33"/><polyline class="cls-13" points="307.71 335.58 290.92 310.13 276.23 330.6 244.48 279.17 210.89 279.17 199.35 264.21 182.95 264.21"/><circle class="cls-14" cx="171.8" cy="272.48" r="2.23"/><circle class="cls-14" cx="171.8" cy="293.73" r="2.23"/><circle class="cls-14" cx="171.8" cy="312.89" r="2.23"/><circle class="cls-14" cx="171.8" cy="332.04" r="2.23"/><circle class="cls-14" cx="172.62" cy="351.19" r="2.23"/><circle class="cls-2" cx="185.31" cy="360.92" r="2.23"/><circle class="cls-2" cx="210.24" cy="360.92" r="2.23"/><circle class="cls-2" cx="235.03" cy="360.92" r="2.23"/><circle class="cls-2" cx="259.83" cy="360.92" r="2.23"/><circle class="cls-2" cx="284.82" cy="360.92" r="2.23"/><circle class="cls-2" cx="310.07" cy="360.92" r="2.23"/><rect class="cls-2" x="192.87" y="376.97" width="96.03" height="1.77" rx="0.89" transform="translate(481.77 755.7) rotate(-180)"/><rect class="cls-2" x="192.87" y="381.88" width="96.03" height="1.77" rx="0.89" transform="translate(481.77 765.54) rotate(-180)"/><rect class="cls-2" x="192.87" y="386.8" width="96.03" height="1.77" rx="0.89" transform="translate(481.77 775.38) rotate(-180)"/><rect class="cls-2" x="192.87" y="393.4" width="39.95" height="1.77" rx="0.89" transform="translate(425.69 788.56) rotate(180)"/><circle class="cls-12" cx="265.83" cy="197.16" r="6.66"/><path class="cls-12" d="M259.82,191.5a1.54,1.54,0,0,1-2.17.14c-.63-.56-.2-1,.36-1.69s1-1.17,1.67-.61A1.52,1.52,0,0,1,259.82,191.5Z"/><path class="cls-12" d="M265.57,188.73A1.55,1.55,0,0,1,264,187.2c0-.84.65-.85,1.5-.86s1.56,0,1.57.84A1.53,1.53,0,0,1,265.57,188.73Z"/><path class="cls-12" d="M271.61,191.32a1.54,1.54,0,0,1,.1-2.17c.63-.57,1.07-.08,1.65.54s1.05,1.16.42,1.73A1.53,1.53,0,0,1,271.61,191.32Z"/><path class="cls-12" d="M274.25,197.13a1.53,1.53,0,0,1,1.53-1.53c.85,0,.85.66.85,1.5s0,1.57-.84,1.57A1.54,1.54,0,0,1,274.25,197.13Z"/><path class="cls-12" d="M271.28,203.32a1.54,1.54,0,0,1,2.17.12c.57.63.08,1.07-.55,1.64s-1.16,1-1.73.41A1.54,1.54,0,0,1,271.28,203.32Z"/><path class="cls-12" d="M265.57,205.59a1.54,1.54,0,0,1,1.52,1.55c0,.85-.67.85-1.52.84s-1.56,0-1.55-.87A1.53,1.53,0,0,1,265.57,205.59Z"/><path class="cls-12" d="M259.87,202.77a1.53,1.53,0,0,1-.06,2.17c-.61.58-1.07.1-1.65-.51s-1.08-1.14-.46-1.72A1.52,1.52,0,0,1,259.87,202.77Z"/><path class="cls-12" d="M257.4,197.13a1.53,1.53,0,0,1-1.51,1.56c-.85,0-.86-.64-.88-1.49s0-1.56.82-1.58A1.55,1.55,0,0,1,257.4,197.13Z"/><rect class="cls-12" x="265.12" y="188.22" width="0.86" height="2.63"/><rect class="cls-12" x="257.91" y="195.84" width="0.86" height="2.63" transform="translate(455.5 -61.18) rotate(90)"/><rect class="cls-12" x="272.96" y="195.84" width="0.86" height="2.63" transform="translate(470.55 -76.23) rotate(90)"/><rect class="cls-12" x="270.57" y="190.6" width="0.86" height="2.63" transform="translate(225.19 -136.98) rotate(46.77)"/><rect class="cls-12" x="259.99" y="200.97" width="0.86" height="2.63" transform="translate(229.41 -126.01) rotate(46.77)"/><rect class="cls-12" x="259.92" y="190.73" width="0.86" height="2.63" transform="translate(576.68 124.26) rotate(131.49)"/><rect class="cls-12" x="270.15" y="201.61" width="0.86" height="2.63" transform="translate(601.85 134.67) rotate(131.49)"/><rect class="cls-12" x="265.12" y="203.36" width="0.86" height="2.63"/><circle class="cls-12" cx="89.69" cy="282.66" r="6.66"/><path class="cls-12" d="M83.68,277a1.54,1.54,0,0,1-2.17.14c-.64-.56-.2-1.06.36-1.69s1-1.18,1.67-.62A1.55,1.55,0,0,1,83.68,277Z"/><path class="cls-12" d="M89.42,274.22a1.52,1.52,0,0,1-1.54-1.52c0-.85.65-.85,1.5-.86s1.56,0,1.57.84A1.54,1.54,0,0,1,89.42,274.22Z"/><path class="cls-12" d="M95.47,276.82a1.53,1.53,0,0,1,.1-2.17c.63-.57,1.07-.08,1.64.54s1.06,1.16.43,1.73A1.53,1.53,0,0,1,95.47,276.82Z"/><path class="cls-12" d="M98.1,282.63a1.55,1.55,0,0,1,1.54-1.54c.85,0,.85.66.85,1.51s0,1.56-.85,1.56A1.53,1.53,0,0,1,98.1,282.63Z"/><path class="cls-12" d="M95.14,288.82a1.54,1.54,0,0,1,2.17.11c.57.63.08,1.08-.55,1.64s-1.17,1.05-1.73.42A1.53,1.53,0,0,1,95.14,288.82Z"/><path class="cls-12" d="M89.43,291.09A1.53,1.53,0,0,1,91,292.64c0,.85-.67.84-1.52.83s-1.56,0-1.55-.86A1.53,1.53,0,0,1,89.43,291.09Z"/><path class="cls-12" d="M83.73,288.26a1.54,1.54,0,0,1-.06,2.17c-.62.59-1.07.11-1.66-.51s-1.07-1.13-.45-1.72A1.54,1.54,0,0,1,83.73,288.26Z"/><path class="cls-12" d="M81.25,282.63a1.52,1.52,0,0,1-1.5,1.56c-.85,0-.86-.64-.88-1.49s0-1.56.82-1.58A1.53,1.53,0,0,1,81.25,282.63Z"/><rect class="cls-12" x="88.98" y="273.72" width="0.86" height="2.63"/><rect class="cls-12" x="81.76" y="281.34" width="0.86" height="2.63" transform="translate(364.85 200.46) rotate(90)"/><rect class="cls-12" x="96.81" y="281.34" width="0.86" height="2.63" transform="translate(379.9 185.41) rotate(90)"/><rect class="cls-12" x="94.43" y="276.1" width="0.86" height="2.63" transform="translate(231.99 18.28) rotate(46.77)"/><rect class="cls-12" x="83.85" y="286.47" width="0.86" height="2.63" transform="translate(236.21 29.25) rotate(46.77)"/><rect class="cls-12" x="83.77" y="276.23" width="0.86" height="2.63" transform="translate(347.89 398.34) rotate(131.49)"/><rect class="cls-12" x="94.01" y="287.11" width="0.86" height="2.63" transform="translate(373.06 408.76) rotate(131.49)"/><rect class="cls-12" x="88.98" y="288.85" width="0.86" height="2.63"/><circle class="cls-12" cx="162.4" cy="192.05" r="3.3"/><path class="cls-12" d="M159.42,189.25a.75.75,0,0,1-1.07.07c-.31-.28-.1-.52.18-.84s.51-.58.82-.3A.75.75,0,0,1,159.42,189.25Z"/><path class="cls-12" d="M162.27,187.88a.77.77,0,0,1-.77-.76c0-.42.32-.42.74-.42s.78,0,.78.41A.77.77,0,0,1,162.27,187.88Z"/><path class="cls-12" d="M165.26,189.16a.75.75,0,0,1,.05-1.07c.3-.28.53,0,.81.27s.52.57.21.85A.76.76,0,0,1,165.26,189.16Z"/><path class="cls-12" d="M166.56,192a.76.76,0,0,1,.76-.76c.42,0,.42.32.42.74s0,.77-.42.77A.74.74,0,0,1,166.56,192Z"/><path class="cls-12" d="M165.09,195.1a.77.77,0,0,1,1.08.05c.28.32,0,.53-.28.81s-.57.52-.85.21A.76.76,0,0,1,165.09,195.1Z"/><path class="cls-12" d="M162.27,196.22a.76.76,0,0,1,.75.77c0,.42-.33.41-.75.41s-.77,0-.77-.43A.76.76,0,0,1,162.27,196.22Z"/><path class="cls-12" d="M159.45,194.82a.77.77,0,0,1,0,1.08c-.31.28-.53,0-.82-.26s-.53-.56-.23-.85A.77.77,0,0,1,159.45,194.82Z"/><path class="cls-12" d="M158.22,192a.76.76,0,0,1-.74.78c-.42,0-.43-.32-.43-.74s0-.77.4-.78A.75.75,0,0,1,158.22,192Z"/><rect class="cls-12" x="162.05" y="187.63" width="0.43" height="1.3"/><rect class="cls-12" x="158.48" y="191.4" width="0.43" height="1.3" transform="translate(350.74 33.36) rotate(90)"/><rect class="cls-12" x="165.92" y="191.4" width="0.43" height="1.3" transform="translate(358.18 25.91) rotate(90)"/><rect class="cls-12" x="164.74" y="188.8" width="0.43" height="1.3" transform="translate(189.99 -60.5) rotate(46.77)"/><rect class="cls-12" x="159.51" y="193.93" width="0.43" height="1.3" transform="translate(192.08 -55.07) rotate(46.77)"/><rect class="cls-12" x="159.47" y="188.87" width="0.43" height="1.3" transform="translate(407.44 195.46) rotate(131.49)"/><rect class="cls-12" x="164.53" y="194.25" width="0.43" height="1.3" transform="translate(419.88 200.61) rotate(131.49)"/><rect class="cls-12" x="162.05" y="195.11" width="0.43" height="1.3"/><circle class="cls-12" cx="402.52" cy="235.88" r="5.89"/><path class="cls-12" d="M397.21,230.88a1.36,1.36,0,0,1-1.92.12c-.56-.49-.18-.93.32-1.49s.91-1,1.47-.55A1.36,1.36,0,0,1,397.21,230.88Z"/><path class="cls-12" d="M402.29,228.42a1.35,1.35,0,0,1-1.37-1.34c0-.75.58-.76,1.33-.77s1.38,0,1.39.74A1.36,1.36,0,0,1,402.29,228.42Z"/><path class="cls-12" d="M407.64,230.72a1.35,1.35,0,0,1,.09-1.92c.55-.5.95-.07,1.45.48s.93,1,.38,1.53A1.37,1.37,0,0,1,407.64,230.72Z"/><path class="cls-12" d="M410,235.86a1.36,1.36,0,0,1,1.36-1.36c.75,0,.75.58.75,1.33s0,1.39-.75,1.39A1.36,1.36,0,0,1,410,235.86Z"/><path class="cls-12" d="M407.35,241.33a1.37,1.37,0,0,1,1.92.1c.5.56.06.95-.49,1.45s-1,.93-1.53.37A1.35,1.35,0,0,1,407.35,241.33Z"/><path class="cls-12" d="M402.3,243.34a1.35,1.35,0,0,1,1.34,1.37c0,.75-.59.75-1.34.74s-1.39,0-1.38-.77A1.36,1.36,0,0,1,402.3,243.34Z"/><path class="cls-12" d="M397.25,240.84a1.35,1.35,0,0,1-.05,1.92c-.54.52-.95.09-1.46-.45s-.95-1-.41-1.52A1.36,1.36,0,0,1,397.25,240.84Z"/><path class="cls-12" d="M395.07,235.86a1.36,1.36,0,0,1-1.34,1.38c-.75,0-.76-.57-.77-1.32s0-1.38.72-1.4A1.38,1.38,0,0,1,395.07,235.86Z"/><rect class="cls-12" x="401.9" y="227.98" width="0.76" height="2.33"/><rect class="cls-12" x="395.51" y="234.72" width="0.76" height="2.33" transform="translate(631.78 -160.01) rotate(90)"/><rect class="cls-12" x="408.83" y="234.72" width="0.76" height="2.33" transform="translate(645.09 -173.33) rotate(90)"/><rect class="cls-12" x="406.72" y="230.08" width="0.76" height="2.33" transform="translate(296.71 -223.75) rotate(46.77)"/><rect class="cls-12" x="397.36" y="239.25" width="0.76" height="2.33" transform="translate(300.45 -214.04) rotate(46.77)"/><rect class="cls-12" x="397.29" y="230.2" width="0.76" height="2.33" transform="translate(834.44 86.75) rotate(131.49)"/><rect class="cls-12" x="406.35" y="239.82" width="0.76" height="2.33" transform="translate(856.69 95.96) rotate(131.49)"/><rect class="cls-12" x="401.9" y="241.36" width="0.76" height="2.33"/><path class="cls-3" d="M146.61,510.86c1.41,0,3,.11,4,1.12a3.54,3.54,0,0,1,0,4.47,7.18,7.18,0,0,1-4.18,2.34c-6.09,1.41-12.49-1-18.7-.16-4.44.58-8.65,2.78-13.13,2.63a3.32,3.32,0,0,1-2.09-.63,10.69,10.69,0,0,1-1.26-1.93,5,5,0,0,0-3.88-1.56,12.64,12.64,0,0,1-4.26-.49c-1.33-.55-2.42-2.07-1.87-3.41s2-1.62,3.35-1.82a83.56,83.56,0,0,1,22.06-.36c3.11.36,5.85-.4,8.93-.35Z"/><path class="cls-15" d="M138.36,277.53l4.23,3.8s2.21,18.54-5.69,19.45-9.46-4.69-9.46-4.69l-3.94-4.61s-2.47.08-2.64-2.88.3-5.11,3.7-5.18l1.81-4.52Z"/><polygon class="cls-15" points="135.59 299.46 135.59 313.2 123.25 310.32 123.25 290.33 135.59 299.46"/><path class="cls-16" d="M134.82,300.88a7.51,7.51,0,0,1-5.21-3.45s3,3.16,5.21,2.88S134.82,300.88,134.82,300.88Z"/><polygon class="cls-16" points="136.81 300.81 135.59 300.88 135.59 311.28 135.14 310.91 133.74 298.46 136.81 299.61 136.81 300.81"/><path class="cls-7" d="M142.7,290.83a1.44,1.44,0,0,1-1.49.41c-.82-.33-1.78-2.05-5.24-.58,0,0-3.1,1-4.5.15,0,0-3.17,6.23,1.23,9.15,0,0,4.42,2.05,6.65-.23S142.11,297.38,142.7,290.83Z"/><path class="cls-2" d="M164.5,331.06a18.39,18.39,0,0,0,7.36-5.44l6.36-5.82c.27-.66-.26-1.26-1-.93a2.86,2.86,0,0,0-.7.6c-.32.32-.67.6-1,.89l-2.15,1.73a.63.63,0,0,1-.26.15.34.34,0,0,1-.38-.23c-.09-.4.61-1,.86-1.25a41,41,0,0,0,3.83-4.08c.33-.4.9-1.09.42-1.57-.68-.67-1.83.14-2.3.67s-1,1.29-1.58,1.89c-.22.22-2.86,3.4-3.13,2.6a.46.46,0,0,1,.1-.4,26.38,26.38,0,0,1,2-2.36c.56-.65,1-1.41,1.49-2.09a18.14,18.14,0,0,0,1.56-1.94c.88-1.57-1-2.3-2-1.13a8.21,8.21,0,0,0-.81,1.26,18.15,18.15,0,0,1-2.13,2.5,21.17,21.17,0,0,0-1.27,1.72c-.41.58-.51,1.08-1.3,1.11a.53.53,0,0,1-.44-.15.51.51,0,0,1-.05-.42c.16-.82.92-1.25,1.42-1.86a16.71,16.71,0,0,0,1-1.5,15.76,15.76,0,0,1,1.12-1.33c.37-.45,1-1.13.82-1.76a1,1,0,0,0-.44-.6,1,1,0,0,0-1,.07,3.79,3.79,0,0,0-1.06,1.19c-.35.47-.75.91-1.12,1.37a44.83,44.83,0,0,1-3.35,3.8,7.27,7.27,0,0,1-1.28,1.26.64.64,0,0,1-.7,0c-.45-.38,0-1.06.29-1.37s.54-.54.79-.83a2.1,2.1,0,0,0,.56-1.43,1.17,1.17,0,0,0-.93-1.12c-1-.12-1.3,1-1.82,1.53-.32.34-.73.58-1.07.9a2.4,2.4,0,0,0-.66,1.49,11.21,11.21,0,0,1-.88,2.05,7.85,7.85,0,0,0-.57,2.79,21.12,21.12,0,0,0-.09,3.47c.33,3,1.48,3.37,1.48,3.37Z"/><polygon class="cls-15" points="127.25 494.59 126.48 508.41 119.03 508.41 117.82 493.06 127.25 494.59"/><path class="cls-17" d="M127.25,505.56c-.61,0-9.43,0-9.43,0v4.17a6,6,0,0,0-1.1,3.72s0,.88,1.1.88H142.5v-2.19s-.77-2-4.72-2.2S127.25,505.56,127.25,505.56Z"/><path class="cls-18" d="M142.8,273.3c.13-.06.86.94.93,1a5.23,5.23,0,0,1,1,2.7,5.73,5.73,0,0,1-.31,1.84,5,5,0,0,1-1,2c-1.34,1.53-3.8,1.32-5.62.91a6.43,6.43,0,0,1-3.25-1.72,2.74,2.74,0,0,0-4.49.11,3,3,0,0,1-2.86,3.29s-2.19,3.29-1.42,6.36h-1.32s.33-3.94-.55-5.15c0,0-1.38-.76-2.26-.21,0,0-1.9-2.31.07-7.25s3.4-1.09,5.59-3.95,7.9-3,9.54-.54S142.79,273.31,142.8,273.3Z"/><polygon class="cls-7" points="131.47 290.81 123.93 284.71 124.19 285.23 131.44 291.83 131.47 290.81"/><polygon class="cls-7" points="130.38 295.61 123.25 291.47 130.58 296.7 130.91 295.92 130.38 295.61"/><path class="cls-2" d="M136.55,383.86c.18-.1,1.43.72,1.6.81a25,25,0,0,1,2.72,1.78c.6.43,1.23.8,1.85,1.19.3.19.59.41.9.59a3.6,3.6,0,0,1,.72.64,3.91,3.91,0,0,0,.54.45c.15.09.32.17.47.25a2.37,2.37,0,0,1,1,1.11,1.73,1.73,0,0,0,.18.36,1.11,1.11,0,0,0,.32.25l.49.29a3.62,3.62,0,0,0,.43.24c.15.07.31.12.46.18a3.46,3.46,0,0,1,1.25.52,5,5,0,0,1,.6.9,2.9,2.9,0,0,0,1.21.92c.28.15.64.49.61.84a.75.75,0,0,1-.36.46c-.67.47-1.92.11-2.63-.17a3.46,3.46,0,0,1-1.34-.92,2.39,2.39,0,0,0-.53,0,4.29,4.29,0,0,1-.71-.16c-.4-.1-1-.38-1,.26a3.27,3.27,0,0,0,.79,1.91l1,1.46c.16.23.29.48.47.69a1.07,1.07,0,0,1,.38.61,1.57,1.57,0,0,1,0,.57l-.11.67a.46.46,0,0,1-.09.23.5.5,0,0,1-.25.09l-1.27.16a1.55,1.55,0,0,1-.48,0,.48.48,0,0,1-.31-.17c0-.05-.05-.18-.11-.21s-.1.14-.13.21a1.18,1.18,0,0,1-.6.72,3,3,0,0,1-.52,0,2.28,2.28,0,0,1-.45,0,1,1,0,0,1-.42-.2c-.17-.12-.48-.24-.55-.45.08.27,0,.39-.22.56a3.5,3.5,0,0,1-.54.47,1.41,1.41,0,0,1-.84.06,2.26,2.26,0,0,1-.69-.18v.48a1.92,1.92,0,0,1,0,.24.13.13,0,0,1-.08.12,1.92,1.92,0,0,1-.61.21c-.41.12-.82.22-1.24.3a1.15,1.15,0,0,1-.88-.09,1.12,1.12,0,0,1-.35-.68c-.29-1.12-.49-2.27-.77-3.39l-.06-.3s-2.42-12.75-2.45-13.13S136.55,383.86,136.55,383.86Z"/><polygon class="cls-19" points="124.28 501.52 123.21 501.48 122.84 499.05 124.2 498.99 124.28 501.52"/><path class="cls-4" d="M135.26,413.83l-8.1,85.67s-8.15-.23-10.76-.59c0,0-3-40.54-1.62-50.35,0,0-4.1-14.06-4.42-37.51Z"/><polygon class="cls-19" points="124.1 501.87 124.39 505.55 125.39 505.55 126.72 505.34 126.72 501.38 124.21 501.56 124.1 501.87"/><polygon class="cls-15" points="133.91 495.5 133.15 509.31 125.69 509.31 124.48 493.96 133.91 495.5"/><path class="cls-20" d="M116.74,513.6s-.32.91,0,1.18l9.15.12-.33-1.3Z"/><path class="cls-20" d="M125,506.91h-.93v3.59s-1.46.74-1.29,3.32h3.48V507.1Z"/><path class="cls-17" d="M133.91,506.46h-9.43v4.17a6.06,6.06,0,0,0-1.09,3.73s0,.88,1.09.88h24.68V513s-.77-2-4.72-2.19S133.91,506.46,133.91,506.46Z"/><path class="cls-21" d="M135.78,413.13l-3.42,86.16s-7.19.22-9.82,0c0,0-5.68-38.91-4.89-48.78,0,0-5.64-11.49-3.82-38.78Z"/><path class="cls-4" d="M138.14,413.13l-3.42,88.73s-8.15.22-10.78,0c0,0-4.74-39.59-4-49.46,0,0-7.1-23.91-4.73-40.8Z"/><path class="cls-22" d="M140.05,401.15c0,.14.11.28.17.42a1.33,1.33,0,0,0,.16.34.27.27,0,0,0,.26.12,1.41,1.41,0,0,0-.11-.45l-.21-.46a8.33,8.33,0,0,1-.44-1A3.6,3.6,0,0,0,140.05,401.15Z"/><path class="cls-22" d="M140.08,395.87a1.66,1.66,0,0,1,.69.13.8.8,0,0,0-.62-.51.56.56,0,0,0-.46.21.46.46,0,0,0-.12.37A1,1,0,0,1,140.08,395.87Z"/><path class="cls-22" d="M140.68,398.87c.09-.21.37-.33.37-.56a1.26,1.26,0,0,1-.52.4c-.16.05-.37,0-.49.17A2.29,2.29,0,0,1,140.68,398.87Z"/><path class="cls-22" d="M138.9,385.26c.41.27.86.46,1.28.71a8.58,8.58,0,0,1,1.21.95.33.33,0,0,1,.16.24c0,.2-.26.27-.45.35a1.49,1.49,0,0,0-.7,1.1,3.56,3.56,0,0,0-.14,2,6.24,6.24,0,0,1,.44,1.23,2.4,2.4,0,0,1-.93,1.76l-2,2c0-.25.29-.38.44-.57a1.09,1.09,0,0,0,.15-.76,32.55,32.55,0,0,0-1.18-5,11.66,11.66,0,0,1,.05-5.19.26.26,0,0,1,.17-.22A9.67,9.67,0,0,0,138.9,385.26Z"/><path class="cls-23" d="M110.58,417.77l.08,1.87s13.45,3,27.19.82v-2Z"/><path class="cls-7" d="M122.81,301c-.14.21,13.93,10.93,14.94,12.21a17.38,17.38,0,0,1,1.3,3.07,20.66,20.66,0,0,1,1.26,4,40.26,40.26,0,0,1,.6,5.91,79,79,0,0,1-.09,13.58c-.2,1.59-.49,3.16-.63,4.76-.48,5.36.67,10.74.6,16.1,0,4.34.63,9-.41,13.26-1.75,7.24,0,40.36,2.86,42.33h-3.73a5.83,5.83,0,0,0,.87,3.07s-24.78,2.64-33.34-2c0,0-.79-12.94-1.23-16.88s-1.75-18.43.88-45.19c.81-8.25,1.58-16.52,2-24.8.37-7.76,3.42-17.17,10.23-21.7C118.89,308.73,122.76,301.06,122.81,301Z"/><path class="cls-20" d="M149.16,514.78H123.51s-.18.9,0,1h25.65A.78.78,0,0,0,149.16,514.78Z"/><polygon class="cls-20" points="125.39 505.55 124.98 505.55 125.03 506.46 125.46 506.46 125.39 505.55"/><path class="cls-24" d="M126.73,314.82s3.19,2.58,4.56,12.19q1.28,4.92,2.59,9.84a93.08,93.08,0,0,0,3,10.28c0,.08.1.17.17.14l-.14-1.06a3.89,3.89,0,0,1,0-.49,3.42,3.42,0,0,1,.09-.63c.35-1.94-.23-3.46-.82-5.26q-.78-2.35-1.54-4.73a68.71,68.71,0,0,1-2.2-7.25,2.25,2.25,0,0,1-.06-.36C132.24,326.17,130.52,318.11,126.73,314.82Z"/><path class="cls-7" d="M158.81,325.62c.43.44.87.87,1.32,1.31.91.89,1.83,1.77,2.78,2.62.45.42.91.82,1.38,1.21l.6.47a4.52,4.52,0,0,1,.51.34.32.32,0,0,1,0,.3c-.09.32-.51.59-.75.81l-.89.81-2.36,2.19c-.95.88-1.91,1.77-2.85,2.66l-3,2.85c-.93.9-1.87,1.81-2.79,2.73-.76.76-1.51,1.53-2.24,2.32a15.9,15.9,0,0,0-1.3,1.53c-2.2,3.07-15.25,17-21.61,10.2s-12.61-27.64-12.61-27.64l15.46-6.14,5.93,21.61A210.44,210.44,0,0,1,158.81,325.62Z"/><path class="cls-24" d="M165.46,331.75c-.06-.39-.63-.65-.92-.86s-.44-.5-.69-.35-.35.68-.48.89a10.19,10.19,0,0,1-1.45,1.63c-.15,0-.61.59-.73.71l-.78.75c-.5.48-1,1-1.49,1.48-.61.7-1.24,1.39-1.86,2.09s-.95,1.46-1.54,2.1a14,14,0,0,0-1,1.08c-.22.33-.38.7-.59,1a6.4,6.4,0,0,1-1.17,1.32.91.91,0,0,0-.17.17,1.79,1.79,0,0,0-.13.32.44.44,0,0,1-.21.27,13,13,0,0,0,1.79-1.61c.67-.6,1.3-1.25,1.95-1.86l2.72-2.58,2.74-2.59,2.35-2.23.9-.84C165,332.46,165.49,332.11,165.46,331.75Z"/><path class="cls-24" d="M139.51,416.2s-3.65-23.24-.69-43.8c0,0,.88-7.61,1.57-14.62,0,0-.12,2.28-.88,15.27s-2.7,9.81,1.27,43.15Z"/><path class="cls-24" d="M140.93,292.42s-2.28-2-4.52-.59A5.41,5.41,0,0,1,140.93,292.42Z"/><path class="cls-24" d="M141.72,296.7s-2.73,4.84-8,3.65c0,0,3.4,1.23,5.31-.31A7.25,7.25,0,0,0,141.72,296.7Z"/><path class="cls-16" d="M122.22,285.17s-1.79,2.33-.34,4.47C121.88,289.64,120.84,288.41,122.22,285.17Z"/><path class="cls-16" d="M123.53,288.43s-.81.05-.51.73.1.65-.39.81c0,0,1-.05.59-.72A.51.51,0,0,1,123.53,288.43Z"/><path class="cls-24" d="M138,314.29s-5.18.33-6.1,3.37C131.85,317.66,132.7,315.19,138,314.29Z"/><polygon class="cls-24" points="122.39 301.8 130.91 317.66 131.27 317.13 122.39 301.8"/><path class="cls-24" d="M124.94,381.22s5.28,1.54,8.8,0A26.25,26.25,0,0,1,124.94,381.22Z"/><path class="cls-21" d="M120,452.4s1.9-.09,2.07-1.49A3.16,3.16,0,0,1,120,452.4Z"/><path class="cls-21" d="M120,452.4a2.13,2.13,0,0,0,1.74,2.1A3.55,3.55,0,0,1,120,452.4Z"/><path class="cls-21" d="M114.78,448.56A1.85,1.85,0,0,0,116,447S115.31,448.52,114.78,448.56Z"/><path class="cls-21" d="M114.78,448.56s.45,2,1.73,1.16C116.51,449.72,115.47,449.91,114.78,448.56Z"/><path class="cls-24" d="M124,384.36v9s.29,3.22,6.71,2.93c0,0-5.29.26-6.38-2.87Z"/><path class="cls-24" d="M136.44,345.8s.92,3.2-1.14,4.35A5.77,5.77,0,0,0,136.44,345.8Z"/><path class="cls-24" d="M136.44,345.8a3.52,3.52,0,0,1-2.65,2.82A5.73,5.73,0,0,0,136.44,345.8Z"/><path class="cls-24" d="M157.82,326.38s.26,4,3.88,5.15A8.35,8.35,0,0,1,157.82,326.38Z"/><path class="cls-22" d="M144.16,398a.16.16,0,0,0-.07,0,4.79,4.79,0,0,0,.32,1.12,6.38,6.38,0,0,0,.44,1.09c.06.11.12.23.19.34a.33.33,0,0,0,.13.13c.07,0,.17,0,.22.09s0,0,0,.06l.07.13a1.11,1.11,0,0,0-.05-.25.91.91,0,0,0-.07-.14,2.75,2.75,0,0,1-.16-.56,2.26,2.26,0,0,0-.19-.49,10.41,10.41,0,0,0-.72-1.36A.39.39,0,0,0,144.16,398Z"/><path class="cls-22" d="M142.83,401.23a1.17,1.17,0,0,1,0-.27c0-.11,0-.22,0-.32a3.27,3.27,0,0,0-.18-.7,1.63,1.63,0,0,1-.11-.31c0-.1,0-.22-.08-.32a3.26,3.26,0,0,0-.22-.34,5.88,5.88,0,0,1-.27-.84,5.55,5.55,0,0,1-.24-.56c0-.19,0-.38-.08-.57a.75.75,0,0,1,0-.26s0-.05,0-.07-.05,0-.06,0a2.06,2.06,0,0,0,0,.43c0,.18.07.35.07.52a4,4,0,0,0,0,.49,3.24,3.24,0,0,0,.37,1,4.85,4.85,0,0,1,.36,1.25,1.74,1.74,0,0,0,.13.46,1.1,1.1,0,0,0,.14.21.5.5,0,0,0,.22.16S142.82,401.2,142.83,401.23Z"/><path class="cls-22" d="M144.93,394.2a3,3,0,0,1-.77-.45,2.87,2.87,0,0,1,.37.49.89.89,0,0,0,.08.17,2,2,0,0,0,.2.21,2.6,2.6,0,0,1,.48.57s0,.08.08.1,0,0,0-.07a1.5,1.5,0,0,1-.06-.29.63.63,0,0,1,.07-.45,1.22,1.22,0,0,1,.17-.15.35.35,0,0,1,.2-.05h.11a.47.47,0,0,0-.16,0,.33.33,0,0,0-.17,0l-.17,0a.22.22,0,0,1-.14,0A1.14,1.14,0,0,1,144.93,394.2Z"/><path class="cls-22" d="M142.43,396a2,2,0,0,1,.65.09c-.08,0-.1-.15-.17-.21l-.11,0a1.52,1.52,0,0,0-.47-.1.42.42,0,0,0-.16,0,.26.26,0,0,0-.11.07l-.25.22a.35.35,0,0,0-.1.11c-.11.26.16,0,.23,0A1.09,1.09,0,0,1,142.43,396Z"/><path class="cls-22" d="M144.74,397.18l.4-.1.21-.08a.68.68,0,0,1,.64.13,1.58,1.58,0,0,0-.64-.37.93.93,0,0,0-.37,0,.77.77,0,0,0-.57.62A2.06,2.06,0,0,1,144.74,397.18Z"/><path class="cls-22" d="M146.73,398a.93.93,0,0,1,.33.45,4.23,4.23,0,0,0,.23.53.57.57,0,0,1-.28-.29,2.58,2.58,0,0,0-.19-.37c-.09-.12-.38-.28-.32-.43A1,1,0,0,1,146.73,398Z"/><path class="cls-22" d="M143,399a.78.78,0,0,1,.21,0,.2.2,0,0,1,.17.11.19.19,0,0,1,.07-.21,1.3,1.3,0,0,1,.18-.15.5.5,0,0,0,.16-.28,4.06,4.06,0,0,1-.46.36l-.1.05c-.07,0-.15,0-.23,0a.6.6,0,0,0-.13.09,1,1,0,0,1-.16.06A.48.48,0,0,0,143,399Z"/><path class="cls-22" d="M146.43,400.22l.16-.08a.2.2,0,0,1,.17,0,.75.75,0,0,1,.2-.3.39.39,0,0,0,.12-.33.2.2,0,0,1-.1.18,1.21,1.21,0,0,1-.2.09,1.5,1.5,0,0,0-.56.47C146.28,400.29,146.37,400.25,146.43,400.22Z"/><path class="cls-22" d="M147.93,394.81l-.19-.46a.6.6,0,0,1-.06-.22.7.7,0,0,1,.06-.32,1.75,1.75,0,0,0-.23.5l0,.07a.11.11,0,0,1-.08,0c-.3,0-.6.05-.89.05a1.19,1.19,0,0,0,.62.09h.41l0,0,.41.39A1,1,0,0,0,147.93,394.81Z"/><path class="cls-22" d="M166.26,316.82a7,7,0,0,0-.87,1.1,4,4,0,0,1-.32.57,2.09,2.09,0,0,1-.54.49l-.31.25a1.72,1.72,0,0,1-.31.24c-.33.14-.59-.13-.69-.42a1.29,1.29,0,0,1-.07-.55.48.48,0,0,1,.09-.26c0-.07.11-.09.12-.2,0,.22-.13.4-.07.62s.14.39.29.41a1.27,1.27,0,0,0,.37-.1,1.56,1.56,0,0,0,.56-.35c.41-.39.82-.8,1.22-1.22a3.19,3.19,0,0,0,.31-.33C166.1,317,166.11,316.91,166.26,316.82Z"/><path class="cls-22" d="M170,318a3.08,3.08,0,0,1-.53.75,1.17,1.17,0,0,1-.84.34.74.74,0,0,1-.68-.52l.45.08a.91.91,0,0,0,.23,0,.7.7,0,0,0,.24-.13,5.59,5.59,0,0,0,.74-.63c.59-.6.91-1.46,1.61-2A14.69,14.69,0,0,0,170,318Z"/><path class="cls-22" d="M172.09,320.1a1.53,1.53,0,0,1-.32.35.73.73,0,0,1-1-.2,1.06,1.06,0,0,0,.47,0,1.18,1.18,0,0,0,.32-.23c.68-.54,1.25-1.22,1.93-1.77C173,318.86,172.54,319.47,172.09,320.1Z"/><path class="cls-22" d="M173.49,322.23a.45.45,0,0,1-.39.19c-.18,0-.27-.25-.43-.35a1.36,1.36,0,0,0,.9-.25c.09-.06.16-.14.24-.2a1.76,1.76,0,0,1,.66-.35A9.86,9.86,0,0,0,173.49,322.23Z"/><path class="cls-22" d="M161,318.21a.48.48,0,0,1,.07.33.46.46,0,0,1-.14.2l-1,1s.06,0,.08,0,0-.06,0-.09a1.51,1.51,0,0,1,.25-.6c.23-.44.2-1.4.55-1.71A1.9,1.9,0,0,0,161,318.21Z"/><path class="cls-24" d="M132,360.52a6.34,6.34,0,0,1-5-2.22,15.12,15.12,0,0,1-2.75-4.87,48.88,48.88,0,0,1-1.92-6.05c1.37,2.24,2.82,4.31,4.18,6.55a10.16,10.16,0,0,0,1.28,1.78,8.55,8.55,0,0,0,2.52,1.66,5.75,5.75,0,0,0,2,.66c1.32.09,2.34-.67,3.53-1a26.69,26.69,0,0,0,3.52-1.52l4-2a3.35,3.35,0,0,0,1.23-.83A17.53,17.53,0,0,1,142,355c-.42.31-.85.6-1.29.89-1.44,1-2.87,2.07-4.4,2.89A11.07,11.07,0,0,1,132,360.52Z"/><path class="cls-3" d="M334.06,513.31c-1.4,1.13-1.9,3.53-.52,4.68a3.75,3.75,0,0,0,2.2.71c3.56.25,7.19-1.31,10.64-.39,1,.26,1.95.73,2.95,1a17,17,0,0,0,5.33.39l7-.21a1.41,1.41,0,0,0,.81-.19c.38-.28.4-.83.58-1.27.68-1.61,3-1,4.77-1.23a4.53,4.53,0,0,0,3.8-5.24c-.15-.72-8.43-1.11-9.39-1.18a90.5,90.5,0,0,0-20.19.78C339.58,511.55,336,511.71,334.06,513.31Z"/><polygon class="cls-15" points="359.65 499.15 358.94 506.64 353.57 506.84 353.8 498.27 359.65 499.15"/><path class="cls-4" d="M367,417.35s-2.47,16.33-6,20.85c0,0,4.29,9.5.14,45.87,0,0-1.29,12.55-.49,16.48l-7.67.28L342.72,450.5l-.56-15.34L353.82,406Z"/><polygon class="cls-15" points="346.71 284.09 359.67 290.31 359.92 315.1 352.85 320.63 342.99 311.22 338.75 303.37 341.35 287.58 346.71 284.09"/><polygon class="cls-19" points="355.07 499.96 355.28 505.64 353.39 505.81 352.8 500.04 355.07 499.96"/><path class="cls-17" d="M350.83,505.07l9.05-.56V510s.84,1.84,0,3.11l-9.05,1.41Z"/><polygon class="cls-20" points="354.97 504.81 355.13 506.4 355.88 513.75 354.03 514.04 353.32 504.94 354.97 504.81"/><path class="cls-20" d="M355.25,512.46h4.92a2.18,2.18,0,0,1-.21,1.42l-4.91.16Z"/><polygon class="cls-15" points="353.89 500.79 354.32 512.3 350.04 512.46 347.01 501.59 353.89 500.79"/><path class="cls-21" d="M357.11,417.88l-7.85,1.38-4.36,25,8,56.6,3.07-.12s-.06-15.29.69-17.3.07-27.33-3.39-37.24C353.28,446.17,359.69,428.16,357.11,417.88Z"/><path class="cls-4" d="M354.17,415.51S353,437,349.92,443.32c0,0,5.71,20.86,4.45,49.55,0,0-.08,7.62.44,10l-7.79.29s-7.38-29.07-8.84-32.75-6.68-25.33-5.73-36.66,5.9-24.58,5.9-24.58Z"/><path class="cls-23" d="M366,422.89s-25.8,1.45-28.62,3l.67-4.14,27.81-2.67.48,2.15Z"/><polygon class="cls-23" points="337.82 423.03 334 424.06 334.69 420.86 338.08 421.31 338.3 422.7 337.82 423.03"/><path class="cls-7" d="M370.44,358.72s5.25,17.48,6.85,29.6-4.57,29.14-1.59,33.64c0,0-34.91-.94-40.85,3.23l1.35-3.51s-1.18,1.12-6.17,1c0,0,11.05-32.56,12.8-44.75s.31-14,.31-14l8.64-11.41Z"/><path class="cls-15" d="M366.58,368.11c-.31,0-.54.27-.91.5a18.09,18.09,0,0,1-3.43,1.66c-.74.28-1.49.52-2.25.75-.42.13-.5.14-.66.46a2.07,2.07,0,0,1-.49.71,4.55,4.55,0,0,1-1.92.91c-.61.15-.81.16-1,.76-.84,2.35-.06,8.43,3.54,7.88,1.17-.19,3.11-.2,3.7-1.47.26-.55.1-1.59.45-2a4.08,4.08,0,0,1,.82-.47c.27-.18.52-.37.77-.57.46-.35.91-.73,1.38-1.07a.84.84,0,0,1,.35-.18,1.53,1.53,0,0,1,.37,0,3.74,3.74,0,0,0,2.52-1.34c.94-1,.57-2.38-.1-3.45a10.77,10.77,0,0,0-1.77-2,7.12,7.12,0,0,0-1-.92A.75.75,0,0,0,366.58,368.11Z"/><path class="cls-15" d="M289.11,297.89,274.8,284.75s-1.09-.45-.71.93c0,0,3.37,4.24,4,4.8,0,0,.44.64.12.94s-1.06.24-.86,1.14c0,0-1.06.29-.95,1,0,0-.58,0-.39.75,0,0-.29.09-.31.1a.67.67,0,0,0-.21.76,3,3,0,0,0,1.46,1.73,14.5,14.5,0,0,1,2.53,2.42l2,1.87c.46.43,1.2,1.44,1.8,1.64.23.07.36-.1.56-.24a17.24,17.24,0,0,0,1.34-1.09c.86-.76,1.68-1.57,2.54-2.34Z"/><path class="cls-16" d="M346.27,306.91l6.88-1.9s-1.75,3.57-6.81,3.63Z"/><path class="cls-7" d="M340.33,300.79s.54,8,5.69,7.11l.67-.43s6.82.41,8.15-5.9l-.1-2.71a38.76,38.76,0,0,1-4.83-.82c-1.41-.44-4.42-1.65-6.9.26,0,0-2.31,1.4-2.73,1.25Z"/><polygon class="cls-7" points="354.74 298.86 361.31 296.15 354.77 299.68 354.74 298.86"/><polygon class="cls-7" points="354.84 301.57 361.37 297.79 354.56 302.58 353.63 302.22 354.84 301.57"/><path class="cls-24" d="M353.41,304.69a7.7,7.7,0,0,1-6.72,2.78l-.33.24s-3.53.05-3.81-.66a5.18,5.18,0,0,0-.68-1.23l.06-1.2S345.46,310.16,353.41,304.69Z"/><path class="cls-18" d="M346.77,285.73c0,.07.1.35.12.41a6.91,6.91,0,0,0,.45,1.05,8.67,8.67,0,0,0,1,1.38A8.18,8.18,0,0,0,349.9,290a9.87,9.87,0,0,0,2.41,1.2,14,14,0,0,0,3.4.67l.93.05c1,0,1,1.69.88,2.39s-.34,1.49-.45,2.24a11.12,11.12,0,0,0,.28,4c.36,1.64,1,3,.71,4.74-.16,1.13-.49,2.24-.58,3.38a4.36,4.36,0,0,0,.91,3.4c.2.21.49.35.67.58s.22.48.39.69a3.12,3.12,0,0,0,1.47,1,5.64,5.64,0,0,0,2.52.09,2.77,2.77,0,0,0,2.2-1.27c.21-.45.2-1,.44-1.42.43-.78,1.52-1,1.91-1.83s-.09-1.82.29-2.62,1.36-.84,2-1.35a2.86,2.86,0,0,0,.9-1.29c.54-1.62-.54-3.35-1.5-4.57,0,0-1.35-.94-2.11-3.87s4.11-13.65-11.53-18-16.28,13.77-16.28,13.77-.44,5.94-4,7.39-4.45,13.33,4.38,11.69c0,0,.78,3.48,3,3.62l4.07.06-.49-7.21s-5,.4-5.36-5.51-.38-10.31-.38-10.31S343.78,291,346.77,285.73Z"/><path class="cls-25" d="M369.22,375.41a13.51,13.51,0,0,1-6,1.08l.1-.39s1.71.46,6.58-1.78Z"/><path class="cls-25" d="M283.39,303.12l-.64-.61-.71-.68a3,3,0,0,1-.41-.39.19.19,0,0,1-.05-.2.69.69,0,0,1,.07-.19,3.16,3.16,0,0,1,.56.48,2.51,2.51,0,0,0,.77.42.7.7,0,0,1,.21.11.63.63,0,0,1,.11.13l.19.29a.73.73,0,0,1,.16.33.29.29,0,0,1-.14.31c-.14.06-.3-.05-.42-.15s-.34-.3-.51-.47l-.39-.42c-.52-.59-1.07-1.12-1.64-1.66l-2.67-2.54-1.28-1.22,7,6.08Z"/><path class="cls-7" d="M363.7,312.71l-5.48.21-6.72,2.21-4.41-.6s-6.58.13-6.91.25-20.76-.44-32.4-6.71-19.86-11.89-19.86-11.89L281,304.41s16.83,21.92,59.73,24.73c0,0-1.52,9.49-.56,14.62s3,16.4,3,20.19l28.11-1s.09-20.75,1.18-26.71-7.92-13.37-7.92-13.37Z"/><path class="cls-7" d="M363.78,312.66s4.55-.23,9.86,5.51l25.06,27.88c5.15,5.74.41,11.18-3.9,14.8s-25.26,16.07-25.26,16.07-3.73-7.6-5.58-8.52c0,0,10.76-7.47,13.45-10.21s7.65-6.86,8.48-6.89-17.22-16.16-17.22-16.16-8.91-12.51-7.93-15.68A41.79,41.79,0,0,1,363.78,312.66Z"/><path class="cls-24" d="M349.3,299.37s-3.62-1.46-6,0A13.83,13.83,0,0,1,349.3,299.37Z"/><path class="cls-24" d="M372.21,338.33s-.82-2.95,1.3-4.24A9,9,0,0,0,372.21,338.33Z"/><path class="cls-24" d="M372.21,338.33A5.54,5.54,0,0,1,368.1,332S368.37,336.43,372.21,338.33Z"/><path class="cls-24" d="M369.54,376.92l-.57-1.13s23.76-13.05,27.39-18.78,2.69-10.54,2.69-10.54a7.85,7.85,0,0,1,1.89,4.56c0,2.47-.93,4.64-3.65,7.51a26.44,26.44,0,0,1-5.35,4.4s-6.44,4.31-13.2,8.42Z"/><path class="cls-24" d="M336.29,421.68s7-34.31,10.26-46.17a20.26,20.26,0,0,0-.32-8.84c-1.22-5.47-6.29-38.06,5.32-51.59,0,0-2.9,2.76-5.5,13.81a86.05,86.05,0,0,0-1.91,22.1,89.46,89.46,0,0,0,1.65,15.67c1.58,7.24-.26,10.82-.26,10.82a316,316,0,0,0-7.73,31.72l-2.71,13S336.13,422,336.29,421.68Z"/><polygon class="cls-24" points="358.06 318.07 358.15 318.55 362.62 312.78 358.06 318.07"/><path class="cls-24" d="M351.56,315.25a.45.45,0,0,0,.49.49c.53,0,4,.68,5.55,2.75a5.42,5.42,0,0,0-1.91-1.7A26.14,26.14,0,0,0,351.56,315.25Z"/><path class="cls-24" d="M340.71,329.14a19.85,19.85,0,0,1,1.87-6.29,26.71,26.71,0,0,1-2.17,3.68c-.42.64-1,1.44-1.79,1.54l-1.85.17a26.47,26.47,0,0,1-5.34-.06S336.83,328.94,340.71,329.14Z"/><path class="cls-24" d="M351.18,315.27s-.15.41-.43.34-4.31,1.5-4.78,2.18C346,317.79,346.1,317.24,351.18,315.27Z"/><path class="cls-24" d="M347.09,314.53s-1.28,2-1.12,3.26C346,317.79,345.84,316.77,347.09,314.53Z"/><path class="cls-21" d="M349.92,443.32s-2.85,0-3.28-1.9A6,6,0,0,0,349.92,443.32Z"/><path class="cls-21" d="M349.92,443.32a2.44,2.44,0,0,1-3,1.88A3.29,3.29,0,0,0,349.92,443.32Z"/><path class="cls-21" d="M360.93,438.2s-2-.08-2.18-1.61A3,3,0,0,0,360.93,438.2Z"/><path class="cls-21" d="M360.93,438.2a3,3,0,0,1-1.85,2A4.12,4.12,0,0,0,360.93,438.2Z"/><path class="cls-2" d="M364,369.62a1.55,1.55,0,0,0-.56.11c-.88.29-1.8.4-2.7.65a5,5,0,0,0-1.87.89,14.68,14.68,0,0,1-1.41,1.32c-.42.26-1,.26-1.35.64a2.1,2.1,0,0,0-.29.58,4.39,4.39,0,0,1-1,1.49c-.34.34-.91.42-1.18.82a.94.94,0,0,0,.22,1.18,1.59,1.59,0,0,0,1.91.2,1.24,1.24,0,0,0,.11.6,5.45,5.45,0,0,1,.14.58,10,10,0,0,1,.13,1.1,3.34,3.34,0,0,0,.26,1.26,2.17,2.17,0,0,0,1.75.91,5.66,5.66,0,0,0,2.38-.28,7.51,7.51,0,0,1,2.09-.63.87.87,0,0,0,.51-.09.65.65,0,0,0,.23-.31,3.21,3.21,0,0,0,.25-1.56c0-.39-.17-.68.23-1a7.49,7.49,0,0,1,.81-.38,4.9,4.9,0,0,0,1-.89,1.89,1.89,0,0,1,1.19-.61c.09,0,.19,0,.24-.07a.25.25,0,0,0,0-.17,7.93,7.93,0,0,0-1.16-2.83l-1-2c-.2-.4-.49-1.47-1-1.55Z"/><path class="cls-2" d="M286.5,296.19l.14-.15a.35.35,0,0,0,.13-.26.42.42,0,0,0,0-.1c-.25-.53-.53-1-.75-1.57l-.71-1.75a1.33,1.33,0,0,0-.36-.58c-.13-.09-.28-.14-.42-.22-.37-.24-.5-.7-.72-1.08a.71.71,0,0,0-.19-.23c-.26-.2-.62-.05-.94-.1a1.5,1.5,0,0,1-.59-.3,1.76,1.76,0,0,0-.59-.31.57.57,0,0,0-.59.19.48.48,0,0,0,.15.62,2.61,2.61,0,0,1-1.08-1,7.18,7.18,0,0,0-1.25-1,15.61,15.61,0,0,1-1.18-1.12c-.08-.07-.45-.33-.45-.41l-.18-.16-2.08-1.92s-1.09-.45-.71.93c.52.66,1.05,1.31,1.57,2s.89,1,1.33,1.56c.23.26.45.52.66.79a2.73,2.73,0,0,1,.52.75.37.37,0,0,1-.08.38c-.16.15-.42.05-.59-.08a1.25,1.25,0,0,0-.24-.16.73.73,0,0,0-.36,0l-.36.07c-.14,0-.3.07-.34.21s0,.17,0,.26a1.77,1.77,0,0,0,0,.23c0,.3.29.52.34.82a.17.17,0,0,1,0,.07l0,0c-.26.09-.55,0-.81.08a.72.72,0,0,0-.44.4.76.76,0,0,0,0,.59c.05.1.19.23.21.33s0,.11-.14.16-.52,0-.78.22a.35.35,0,0,0-.13.19.4.4,0,0,0,0,.24l.26.77a.91.91,0,0,0,.17.34,1.33,1.33,0,0,0,.34.22c.5.31.71,1,1,1.48a6,6,0,0,0,1.53,1.79,10.78,10.78,0,0,0,1.12.68l1.43.8c.33.19,1.12.84,1.5.8a4.77,4.77,0,0,0,1.73-2.16,10.71,10.71,0,0,1,1.47-1.62l.66-.7c.18-.21.35-.47.53-.66Z"/><path class="cls-26" d="M356.2,380.12l-.1-.34a2,2,0,0,1-.17-.53c0-.24,0-.48,0-.71a2.5,2.5,0,0,0-.15-.38,2,2,0,0,1-.12-.59,6.48,6.48,0,0,1,0-.88,1.7,1.7,0,0,1,.09-.5,1.91,1.91,0,0,1,.57-.73c-.08.13-.15.27-.22.4a1.64,1.64,0,0,0-.18.51,1.68,1.68,0,0,0,0,.5,1.26,1.26,0,0,0,.11.55,1,1,0,0,1,.19.51c0,.1,0,.21-.05.31a1.67,1.67,0,0,0,0,.59c.07.46.15.92.25,1.37l.15.66c0,.16.18.48.13.63a1.88,1.88,0,0,1-.38-.79Z"/><path class="cls-24" d="M367.72,365.74a16.94,16.94,0,0,1,4.48,7.3A12.6,12.6,0,0,0,367.72,365.74Z"/><path class="cls-24" d="M291.17,298.31s-1.49,6.15-6.74,8.1C284.43,306.41,288.47,304.78,291.17,298.31Z"/><path class="cls-26" d="M366.43,375.47s-2.74,2.53-3.7,2.57a12.67,12.67,0,0,1,.15,1.5,5.46,5.46,0,0,1,0,1.07c0,.24-.41.84.1.77a.46.46,0,0,0,.32-.27,1.32,1.32,0,0,0,.09-.43,5.11,5.11,0,0,0-.06-1.95c-.1-.33,0-.37.3-.57a3.35,3.35,0,0,1,.8-.5,9.48,9.48,0,0,0,1.36-.76l.56-.41c.11-.08.41-.25.46-.39S366.54,375.63,366.43,375.47Z"/><path class="cls-24" d="M385.89,351.3s1,2.48,3.39,2.09A4.54,4.54,0,0,1,385.89,351.3Z"/><path class="cls-24" d="M385.89,351.3s2.66.88,3.9-.59A6.63,6.63,0,0,1,385.89,351.3Z"/><path class="cls-7" d="M354.83,379.8s2,1.51,8.76.88l-1.23,4.18L357.22,386l-2.91-.84Z"/><path class="cls-24" d="M364.49,380.6s-7,1.41-9.95-1A34,34,0,0,0,364.49,380.6Z"/><path class="cls-24" d="M364.31,383.92l-.89,9s-.61,3.17-7,2.25c0,0,5.24.78,6.63-2.22Z"/><path class="cls-22" d="M281,290.15a.62.62,0,0,0,0,.1,1.32,1.32,0,0,0,.36.53,1.12,1.12,0,0,0,.24.13l.27.12a1.74,1.74,0,0,1-.51-.06.83.83,0,0,1-.44-.26l-.12-.18-.19-.19a3.63,3.63,0,0,1-.62-.92,2.55,2.55,0,0,0,.4.47l.25.19.22.14a1.39,1.39,0,0,1,0-.41,1.89,1.89,0,0,0,.09.21S281,290.1,281,290.15Z"/><path class="cls-22" d="M282.85,292.51a1.43,1.43,0,0,1-.11.61,4.34,4.34,0,0,0,.21,3.05,4.16,4.16,0,0,0-.47-1.13,1.84,1.84,0,0,1-.29-.64,1.29,1.29,0,0,1,0-.48c0-.26.1-.52.16-.78a1,1,0,0,0,.05-.37,1.57,1.57,0,0,0-.18-.45.46.46,0,0,1-.07-.34c.14,0,.2.21.3.3S282.85,292.5,282.85,292.51Z"/><path class="cls-22" d="M274.59,286l.42.51a.89.89,0,0,0,.3.28c.07,0,.16.05.2.12a.42.42,0,0,1,0,.2.94.94,0,0,0,.22.5,3.16,3.16,0,0,0,1.68,1.15.7.7,0,0,0-.1.74,1.81,1.81,0,0,0,.5.6,2.65,2.65,0,0,1,.53.58,1.58,1.58,0,0,1,.16.86,2.33,2.33,0,0,1-.57-.17l-.25-.16c-.07-.05-.12-.14-.2-.16a1,1,0,0,0,.64,0,.82.82,0,0,0-.25-.66l-.51-.66c-.52-.64-1.06-1.26-1.61-1.86-.18-.19-.36-.38-.53-.58s-.43-.58-.64-.88a8,8,0,0,1-.56-.83.62.62,0,0,1,0-.62A1.93,1.93,0,0,0,274.59,286Z"/><path class="cls-22" d="M276.57,292.36a2.57,2.57,0,0,0,.28.37l.39.42a2.06,2.06,0,0,0,.29.3l.25.2a1.64,1.64,0,0,1,.37.42,1.42,1.42,0,0,1-.63-.36,5.13,5.13,0,0,1-1-1.13,4.16,4.16,0,0,1-.08-.43A2.39,2.39,0,0,0,276.57,292.36Z"/><path class="cls-22" d="M276.87,295.14a1.72,1.72,0,0,1-.82-.48,6.18,6.18,0,0,1-.52-.61C276,294.4,276.43,294.78,276.87,295.14Z"/><path class="cls-22" d="M275.21,295.94l.72.52a3.44,3.44,0,0,0,.68.37c-.13,0-.33.06-.39.19s.1.38.17.49c.21.29.41.58.63.85a5.82,5.82,0,0,1,.83,1.09,1.5,1.5,0,0,1-.4-.25,2.18,2.18,0,0,1-.22-.31,2.7,2.7,0,0,0-.28-.31,7.8,7.8,0,0,1-.7-.93c-.09-.13-.21-.24-.29-.37a4.61,4.61,0,0,1-.22-.51,2.33,2.33,0,0,0-.66-.74.92.92,0,0,1-.46-.75A1.87,1.87,0,0,0,275.21,295.94Z"/><path class="cls-22" d="M277.63,295.36a.85.85,0,0,0,.52-.27.62.62,0,0,0,.14-.55s0,0-.05.08c-.1.47-.47.54-.83.73A.55.55,0,0,0,277.63,295.36Z"/><path class="cls-22" d="M276.87,296.65a.49.49,0,0,0,.41-.33.48.48,0,0,0-.15-.49,1.31,1.31,0,0,1,.07.44.44.44,0,0,1-.24.36"/><path class="cls-22" d="M279.58,293.91a1,1,0,0,0,.15-.87.6.6,0,0,0-.06-.23c-.08.24.06.52,0,.74a.67.67,0,0,1-.21.23c-.13.09-.31.17-.37.31A.65.65,0,0,0,279.58,293.91Z"/><path class="cls-17" d="M354.75,505.9l-7.28.61s-1,3-2.39,3.87a19.32,19.32,0,0,1-6.44,2.38c-2.24.28-3.5.84-3.5,3.5h19.61a2.72,2.72,0,0,0,.7-2.66A72.85,72.85,0,0,1,354.75,505.9Z"/><path class="cls-20" d="M355.47,515l-20.26.31a3.08,3.08,0,0,0-.07,1h19.61A1.19,1.19,0,0,0,355.47,515Z"/><path class="cls-27" d="M1054,548.73a1.92,1.92,0,0,1-.35.23,7.6,7.6,0,0,1-1,.55,1.36,1.36,0,0,1-.25.11l-.3.13c-.21.09-.42.18-.64.25-.64.24-1.3.47-1.88.72a1.48,1.48,0,0,0-.27.1l-2.81,1.2-2.07.89-.13.05h0c-.74.32-1.47.63-2.22.88-.32.12-.65.22-1,.31l-.13,0-.13,0-.41.1-.53.11-.38.05-.46,0H1039l-.37,0a6.69,6.69,0,0,1-2-.27h0a5.26,5.26,0,0,1-1.17-.49,4.61,4.61,0,0,1-1.39-1.16c0-.08-.12-.15-.16-.23v0a.51.51,0,0,1-.11-.16,2,2,0,0,1-.21-.38,4.92,4.92,0,0,1-.41-1.57h0l0-.46a2.28,2.28,0,0,1,0-.26,11,11,0,0,1,.06-1.82,12.79,12.79,0,0,1,.79-3.38l0,.21v0a13.85,13.85,0,0,0,.72,2.85.14.14,0,0,0,0,.06,13,13,0,0,0,.76,1.7c0,.09.09.17.13.27a2.31,2.31,0,0,0,.77.92,1.75,1.75,0,0,0,1.27.12l.13,0,.16,0,.14-.07.06,0a5.42,5.42,0,0,0,2.36-2.46h0c.17-.28.31-.55.45-.83s.3-.58.44-.87c.4-.78.79-1.57,1.16-2.35a83.71,83.71,0,0,0,4-9.6c-.1.49-.22,1-.34,1.44-.54,2-1.32,4-1.91,6-.18.6-.33,1.22-.47,1.84a18.71,18.71,0,0,0-.32,2.23q0,.66,0,1.32a10,10,0,0,0,.33,2.3,1.3,1.3,0,0,0,.37.67.82.82,0,0,0,.67.1,2.24,2.24,0,0,0,.5-.16,9.41,9.41,0,0,0,4-2.82,7.68,7.68,0,0,0,1-1.89l.32-.87.36-1.24.19-.67q1.52-5.22,3-10.43c-.3,1.51-.61,3-.93,4.51-.16.79-.32,1.58-.49,2.36-.23,1.17-.48,2.33-.66,3.5-.09.57-.16,1.16-.21,1.73,0,.24,0,.47-.05.71s0,.29,0,.43a4.31,4.31,0,0,0,.4,2.36C1052.22,548.32,1053.55,548.66,1054,548.73Z"/><path class="cls-2" d="M977,390.33a21.13,21.13,0,0,0-1.91,7q-1.95,13-3.93,26c-1,6.78-2,13.55-2.75,20.36-1.82,17.3-1.64,34.73-1.47,52.12q.21,19.62.39,39.23c.05,3.73.09,7.45.12,11.18l.09,8.27A24.06,24.06,0,0,0,968,560c-2.29-1.53-4.54-3.15-6.72-4.85-15.55-12.07-27.88-28-38.19-44.9-9.9-16.19-18.36-34.89-15.47-53.75,2.25-14.72,11.29-27.64,22.37-37.35s24.21-16.62,37.16-23.53Q972.07,393,977,390.33Z"/><path class="cls-2" d="M1040,523.36h0a.83.83,0,0,1-.13-.14,6.87,6.87,0,0,0-1.67-1.36h0a9.16,9.16,0,0,0-1.17-.59,17.26,17.26,0,0,0-2.42-.73,4.52,4.52,0,0,0-.47-.11,28,28,0,0,1-3.26-.89q-.68-.24-1.32-.54c-.93-.43-1.84-.94-2.74-1.43a24,24,0,0,0-3.13-1.47,4.19,4.19,0,0,0-.46-.16,8.72,8.72,0,0,0-2.33-.43,12.82,12.82,0,0,0-4.56.87,9.83,9.83,0,0,1-1-3.35,14.62,14.62,0,0,1-.09-2.09c0-.15,0-.31,0-.46s0-.4,0-.61c0-.41.06-.82.11-1.23.09-.89.2-1.79.3-2.68s.16-1.69.22-2.53c0-.54.06-1.09.08-1.63s0-1.08,0-1.62a41.59,41.59,0,0,0-.81-8.34c-.52-2.61-1.32-5.16-1.66-7.8-.6-4.81.79-10.1-.6-14.76-3.42.36-.53,20.53-.26,23.75,0,.46.07.91.11,1.36s.07.91.1,1.36.06.87.09,1.31l.08,1.35c0,.44.05.89.07,1.34s0,.89,0,1.35c0,.8.05,1.59.06,2.39v.32c0,.52,0,1,0,1.59s0,1.18-.06,1.78-.06,1.19-.11,1.78c0,.19,0,.39,0,.59a.11.11,0,0,1,0,.05c0,.27,0,.53-.06.79a.43.43,0,0,0,0,.12l-.09.77c0,.29-.08.57-.11.84l-.12.84c-.07.39-.13.76-.19,1.14-.14.76-.31,1.51-.49,2.27-.09.38-.19.75-.29,1.13h0c0,.1-.06.21-.08.31l-4,3-1,.76-26.39,19.28c-.34.44-.67.89-1,1.33l-.59.79.36-.11,1-.31,28.43-9h0l3.21-1h0l18.34-5.83.45-.15.14,0Z"/><path class="cls-2" d="M1329.46,464.81c-2.61,19.81-15,36.85-28.59,51.27-4.84,5.13-9.9,10.09-15.18,14.76l-15.25-25-1-1.72-8.53-14-42.81,11.2c-.06.18-.11.35-.16.52a.78.78,0,0,1-.05.14,19.11,19.11,0,0,1-.75,2.1l0,.06a9.85,9.85,0,0,1-.61,1.16c-.09.15-.18.31-.28.46l0,0c-.08.14-.16.26-.25.39l0,0-.32.42c-.12.15-.24.28-.36.42s-.36.39-.56.58h0l-.07.06a.1.1,0,0,1,0,.05l-.18.16-.32.27-.51.39-.33.24-.48.32-.26.17-.07,0a30.29,30.29,0,0,1-9.09,3.06l-1.4.3c-.66.19-1.33.37-2,.51-1.72.36-3.45.71-5.16,1.08-3.78.8-7.54,1.62-11.32,2.44h-.15l-2.46.53h0l-.82.2-3.66.79-7.29,1.59c-4.69,1-9.32,2.13-14,3l-.16,0c-1.29.28-2.57.57-3.87.84l-.15,0-1.14.26-2.39.57q-3.18.72-6.34,1.38c-1,.21-2.07.43-3.11.6l-.16,0-8.79,1.9c-.65.2-1.3.38-1.95.56a51.7,51.7,0,0,1-6.16,1.25l-.46.05-1.15.25c-.39.14-.78.28-1.18.4a24.11,24.11,0,0,1-3,.76c-.77.13-1.55.19-2.31.35-1.76.35-3.46,1.13-5.25,1h0l-.25.06c-.24.1-.5.19-.75.27h0a4.16,4.16,0,0,1-1.48.64c-.3.07-.59.15-.88.2h0c-.24.06-.47.1-.69.14l-.41.07-.4.07-.72.11h-.17a45.56,45.56,0,0,0-5.44,1l-.72.19h-.06l-.06,0-.9.22c-.37.1-.76.18-1.14.27l-1.73.35c-1.55.3-3.11.57-4.66.85-2,.39-4.1.69-6.1,1.2l-.62.16-.1,0-1.41.43-.41.12c-1,.34-2.09.68-3.15,1a18.94,18.94,0,0,1-3.18.58l-1.62.07c-.53,0-1,.08-1.58.15l-.39.07c-.87.15-1.73.39-2.61.47-.25,0-.52,0-.77.07s-.49.08-.74.1a9.7,9.7,0,0,0-1.53.2l-.22.06a7,7,0,0,0-2.76,2.1h0a16.11,16.11,0,0,1-1.24,1.59l-.5.5c-.19.16-.36.31-.55.45s-.38.28-.57.4-.43.27-.65.39l-.35.19-.07,0-.48.24c-.39.19-.79.36-1.2.52l0,0h0l-.4.16a7.6,7.6,0,0,1-1,.55,1.36,1.36,0,0,1-.25.11l-.3.13c-.21.09-.42.18-.64.25-.64.24-1.3.47-1.88.72a1.48,1.48,0,0,0-.27.1l-2.81,1.2-.36.18-.19.09-1.45.66h0l-.72.3-.69.26,0,0-.14.06-.8.25c-.32.12-.65.22-1,.31l-.13,0-.13,0-.41.1-.53.11-.38.05-.46,0H1039l-.37,0a6.69,6.69,0,0,1-2-.27h0l-.6-.15c-.15-.06-.31-.11-.45-.18l-.3-.14h0a5.27,5.27,0,0,1-.46-.31l-.32-.29a2.68,2.68,0,0,1-.42-.58c0-.08-.12-.15-.16-.23v0a.51.51,0,0,1-.11-.16,2,2,0,0,1-.21-.38,4.92,4.92,0,0,1-.41-1.57h0l0-.46a2.28,2.28,0,0,1,0-.26,11,11,0,0,1,.06-1.82,12.79,12.79,0,0,1,.79-3.38l0,.21v0a1,1,0,0,0,0-.18l0-.06a.15.15,0,0,1,0-.08h0a.14.14,0,0,1,0-.06c.06-.24.13-.47.2-.7a6.59,6.59,0,0,1,.25-.75c.09-.28.19-.56.3-.82s.16-.42.25-.63.25-.56.38-.83.16-.34.25-.5.22-.41.34-.61.23-.39.35-.57a58.62,58.62,0,0,1,6.09-8.11c.29-.32.58-.61.88-.9s.81-.76,1.23-1.12.58-.49.87-.73l0,0c.35-.27.69-.52,1-.77s.64-.45,1-.66l.34-.21c.3-.2.61-.38.93-.57h0l.77-.44.53-.28c.4-.21.8-.4,1.2-.59s.66-.3,1-.45c.71-.31,1.43-.59,2.17-.86l.81-.28.1,0a.42.42,0,0,1,.13,0c.38-.14.76-.26,1.16-.38l.4-.13.81-.22c.28-.09.56-.16.84-.23.88-.23,1.78-.44,2.67-.63,0,0,0-.05,0-.08s-.08-.32-.11-.48-.08-.38-.11-.56c-.07-.38-.12-.75-.19-1.12-.14-.94-.28-1.88-.43-2.81l-.24-1.6-.3-1.92a.53.53,0,0,1,0-.13c0-.1,0-.2,0-.3a.15.15,0,0,1,0-.07l0-.14q-.42-2.82-.86-5.65c-.09-.56-.18-1.14-.26-1.7q-2.44-15.92-4.87-31.85c-2.57-16.77-5.14-33.61-5.8-50.57q-2.28-8.13-4.24-16.34c-2.23-9.36-5.8-20.17-5.82-29.79,1.61.84,3.15,1.8,4.69,2.79-.67-4.94-1.12-11.37-4.07-12.52-2.3-.91-9.15,2.43-11.59,3.13L1014.29,373c-1.14.32-2.29.66-3.44,1-3.26,1-6.54,2-9.82,3,3.39-1.93,6.77-3.9,10.12-5.88,13.06-7.72,25.86-15.87,38.15-24.75q6.84-4.94,13.45-10.17a284.34,284.34,0,0,0,39-37.13,223.69,223.69,0,0,0,19.09-25.63c.87-1.37,1.72-2.74,2.56-4.14,13.74-22.76,23.55-42.08,45.53-55.67,2.62-1.6,5.4-3.14,8.37-4.58,30.63-14.87,82.94-24.85,113.67-5.09,13.22,8.5,20.8,23.66,26,38.7a200.82,200.82,0,0,1,10.28,77.85c-1.8,27.05-9.1,54-6.08,80.92C1323.48,422.71,1332.24,443.59,1329.46,464.81Z"/><path class="cls-28" d="M1113.79,336.7a172.33,172.33,0,0,0,5.19,57.82l1.38.7-30,58.71c-9.52-5.27-15-15.5-19.94-25.2-4-7.79-7.89-15.63-12.88-22.8-7.13-10.24-16.38-19.08-21.84-30.29-3.42-7-5-15.48-3.27-23.19.72-3.17,2.55-8.95,5.58-10.72s8.92.57,12.69.94C1071.92,344.69,1092.79,338.39,1113.79,336.7Z"/><path class="cls-29" d="M1141.13,495.21a8.31,8.31,0,0,1-1,2.94,9.52,9.52,0,0,1-3.64,2.86c-2.15,1.17-4.29,2.34-6.48,3.42a55.56,55.56,0,0,1-7.9,3.29c-4.33,1.38-8.85,2-13.22,3.28-.41.12-.82.23-1.22.36a79.54,79.54,0,0,0-9.88,3.85c-5.21,2.37-10.31,5-15.6,7.26a20.71,20.71,0,0,1-3.56,1.2,8.69,8.69,0,0,1-2.32.25,7.37,7.37,0,0,1-.82,0,9,9,0,0,1-6-4.09,11.21,11.21,0,0,1-.72-1.2,26.64,26.64,0,0,1-2.27-8.56c-2.77-19.07-4-38.47-9-57.08-1.59-5.91-3.56-11.69-5.4-17.52q-2.08-6.62-4-13.3-2.28-8.13-4.24-16.34c-2.23-9.36-5.8-20.17-5.82-29.79,1.61.84,3.15,1.8,4.69,2.79h0a62.2,62.2,0,0,0,9.1,5.24c.92.39,1.84.76,2.77,1.11.73.29,1.46.56,2.2.82,3.34,1.2,6.73,2.24,10.12,3.28s7,2.1,10.58,1.78a23.81,23.81,0,0,0,7.57-2.31,131.49,131.49,0,0,0,12.12-6.57c1.63-1,3.24-1.93,4.87-2.88h0c5.79-3.37,11.66-6.47,18.11-8.17a7.58,7.58,0,0,1,3.52-.3,3,3,0,0,1,.65.19c1.56.65,2.43,2.31,3.13,3.84,5.44,12.09,7.89,25.22,9.1,38.45.31,3.37.54,6.75.71,10.11.87,16.59.53,33.28,2.75,49.74C1141,480.46,1142.53,487.94,1141.13,495.21Z"/><path class="cls-30" d="M1025,275.35c-2.57,6.77-3.46,14-4,21.25-.72,9.88-.63,20.39,4.47,28.87,6.09,10.16,17.86,15.12,27.28,22.3,6.44,4.92,12.84,11.4,21,11.28,5.84-.08,11-3.69,15.46-7.45,12.16-10.23,22.78-23.57,25.07-39.29.66-4.58.57-9.39-1.19-13.67-3.58-8.66-13-13.28-18.65-20.79-2.56-3.42-4.32-7.45-7.24-10.58-5.08-5.44-12.79-7.33-20-9l-11.5-2.6C1041,252.38,1030.19,261.76,1025,275.35Z"/><path class="cls-31" d="M1078.6,523.67a.31.31,0,0,1-.1.1,3.64,3.64,0,0,1-2.13.55h-.07l-12.72.59a6.48,6.48,0,0,1-2.2-3.81c-.19-.74-.31-1.5-.43-2.24q-3.54-23.08-7.06-46.17c-2.57-16.77-5.14-33.61-5.8-50.57,0-.92-.07-1.84-.1-2.76-.11-4.06-.23-8.12-.5-12.17-.23-3.53-1.32-7.58-.53-11a14.52,14.52,0,0,1,1.42-3.76c1.47-2.78,3.72-4.95,6.21-7.25l.41-.37a1.19,1.19,0,0,1,.88-.43c.5,0,.72.65.82,1.15,0,.15.07.31.09.47a7.12,7.12,0,0,1,.13,2.94,20.37,20.37,0,0,1-1.4,3.22c-2,5,2,5.71,5,8.36,4.78,4.19,7.18,10.43,9,16.52a166.16,166.16,0,0,1,6.39,33c.47,5.15.73,10.32,1,15.48s.51,10.46.76,15.69c.59,12,1.17,23.93,1.58,35.91l.12,3.58C1079.43,521.74,1079.39,523,1078.6,523.67Z"/><path class="cls-7" d="M1001,377c-8,4.55-16,9-24.08,13.32a12.14,12.14,0,0,1,1.89-2.58,32,32,0,0,1,15.76-9C996.74,378.22,998.89,377.64,1001,377Z"/><path class="cls-32" d="M1035,553.81a3.07,3.07,0,0,1-.59-.49,2.91,2.91,0,0,1-.58-.93v0a.51.51,0,0,1-.11-.16,2,2,0,0,1-.21-.38,4.92,4.92,0,0,1-.41-1.57h0l0-.46a2.28,2.28,0,0,1,0-.26,11,11,0,0,1,.06-1.82l-31,5.82c-4.1,1-8.25,1.94-12.38,2.81-.63.13-1.29.26-2,.36h0a.5.5,0,0,0-.12,0c-.38,0-.76.1-1.14.13a11,11,0,0,1-2,0L968,560"/><path class="cls-7" d="M1034.67,547.48c-.39.74-.78,1.49-1.22,2.21a1.22,1.22,0,0,1-.12.19h0a.25.25,0,0,1,0,.07c-.07.1-.12.19-.18.29l0-.46a2.28,2.28,0,0,1,0-.26,11,11,0,0,1,.06-1.82l-31,5.82c-4.1,1-8.25,1.94-12.38,2.81-.63.13-1.29.26-2,.36h0a.5.5,0,0,0-.12,0c-.38,0-.76.1-1.14.13a11,11,0,0,1-2,0L968,560a.8.8,0,0,0,0-.15h0a23.78,23.78,0,0,1-.51-5.31l-.09-8.27c0-3.73-.07-7.45-.12-11.18q-.18-19.6-.39-39.23c-.17-17.39-.35-34.82,1.47-52.12.72-6.81,1.74-13.58,2.75-20.36q2-13,3.93-26a21.13,21.13,0,0,1,1.91-7C985,386,993.07,381.56,1001,377c3.28-1,6.56-2,9.82-3,1.15-.35,2.3-.69,3.44-1l12.77-3.61c2.44-.7,9.29-4,11.59-3.13,2.95,1.15,3.4,7.58,4.07,12.52h0a21.35,21.35,0,0,0,.93,4.46,54.43,54.43,0,0,0,4.72,9.13h0c1.18,1.88,2.44,3.69,3.75,5.48,1.19,1.6,2.41,3.17,3.62,4.73,3.19,4,6.46,8.11,8.71,12.76a59.12,59.12,0,0,1,4.35,14.64c3.79,19.7,4.81,39.83,5.82,59.89q.34,6.94.71,13.91c.13,2.61.25,5.23.39,7.85l.06,1.15c0,.32,0,.64,0,1,0,.52.06,1,.08,1.55v.06c.06,1,.1,2,.15,2.93,0,.05,0,.11,0,.16,0,.63,0,1.26.08,1.88.06,1.19.1,2.38.13,3.58h0c0,.13,0,.26,0,.39a114.5,114.5,0,0,1-.25,12.7l-.16.19h0a11.07,11.07,0,0,1-2.18,1.94,13,13,0,0,1-2.57,1.4h0c-.56.23-1.14.42-1.74.6h-.06a30.84,30.84,0,0,1-6.7,1h0l-.35,0h-.1c-.65,0-1.31.05-2,.06-1.84,0-3.68,0-5.44.08-.79,0-1.57,0-2.36.1l-.27,0-.71,0-.21,0h0c-1.21.09-2.42.23-3.62.39s-2.4.38-3.6.61l-.19,0-1,.22-.24.06c-1.37.3-2.72.65-4.08,1-.72.21-1.43.46-2.15.66s-.72.37-1,.92l-.39.72h0l-.14.25S1034.68,547.45,1034.67,547.48Z"/><path class="cls-7" d="M1034.43,553.2a3.25,3.25,0,0,0,.78.6H1035a3.07,3.07,0,0,1-.59-.49,2.91,2.91,0,0,1-.58-.93c0,.08.11.15.16.23A2.68,2.68,0,0,0,1034.43,553.2Z"/><path class="cls-7" d="M1044.37,553h.07l-.72.3-.69.26,0,0-.14.06-.8.25c-.32.12-.65.22-1,.31l-.13,0-.13,0-.41.1-.53.11-.38.05-.46,0H1039l-.37,0a6.69,6.69,0,0,1-2-.27h0l-.6-.15c-.15-.06-.31-.11-.45-.18l-.3-.14.18,0,8.86-.82h.11Z"/><path class="cls-7" d="M1296.6,358.28V505.87h-26.16l-1-1.72-8.53-14-42.81,11.2c-.06.18-.11.35-.16.52a.78.78,0,0,1-.05.14,19.11,19.11,0,0,1-.75,2.1l0,.06a9.85,9.85,0,0,1-.61,1.16c-.09.15-.18.31-.28.46l0,0H1149V358.28Z"/><path class="cls-2" d="M1294.88,360V504.15H1269.4l-8.53-14-42.81,11.2c-.06.18-.11.35-.16.52a.78.78,0,0,1-.05.14,19.11,19.11,0,0,1-.75,2.1h-66.37V360Z"/><rect class="cls-33" x="1156.65" y="372.32" width="132.3" height="30.39"/><rect class="cls-33" x="1207.29" y="383.96" width="31.02" height="7.13"/><rect class="cls-33" x="1156.65" y="415.39" width="132.3" height="30.39"/><rect class="cls-33" x="1209.16" y="427.45" width="27.29" height="6.27"/><rect class="cls-7" x="1156.36" y="458.45" width="133.06" height="30.39"/><rect class="cls-2" x="1157.3" y="459.46" width="131.06" height="28.24"/><rect class="cls-33" x="1209.16" y="470.51" width="27.29" height="6.27"/><path class="cls-32" d="M1285.65,530.86h0l0,0-15.25-25-1-1.72-8.53-14-42.81,11.2c-.06.18-.11.35-.16.52a.78.78,0,0,1-.05.14,19.11,19.11,0,0,1-.75,2.1l0,.06a9.85,9.85,0,0,1-.61,1.16c-.09.15-.18.31-.28.46l0,0c-.08.14-.16.26-.25.39l0,0-.32.42c-.12.15-.24.28-.36.42s-.36.39-.56.58a.16.16,0,0,1-.08.06.1.1,0,0,1,0,.05l-.18.16-.06.06a10.28,10.28,0,0,1-1.58,1.17l-.26.16-.07,0a30.29,30.29,0,0,1-9.09,3.06l-1.4.3c-.66.19-1.33.37-2,.51-1.72.36-3.45.71-5.16,1.08-3.78.8-7.54,1.62-11.32,2.44h-.15l-2.46.53h0l-.82.2-3.66.79-7.29,1.59c-4.69,1-9.32,2.13-14,3l-.16,0c-1.29.28-2.57.57-3.87.84l-.15,0-1.14.26-2.39.57q-3.18.72-6.34,1.38c-1,.21-2.07.43-3.11.6l-.16,0-8.79,1.9c-.65.2-1.3.38-1.95.56a51.7,51.7,0,0,1-6.16,1.25l-.46.05-1.15.25c-.39.14-.78.28-1.18.4a24.11,24.11,0,0,1-3,.76c-.77.13-1.55.19-2.31.35-1.76.35-3.46,1.13-5.25,1h0l-.25.06c-.24.1-.5.19-.75.27h0a4.16,4.16,0,0,1-1.48.64c-.3.07-.59.15-.88.2h0c-.24.06-.47.1-.69.14l-.41.07-.4.07-.72.11h-.17l-6.16,1.16h-.06l-.06,0-.9.22c-.37.1-.76.18-1.14.27l-1.73.35c-1.55.3-3.11.57-4.66.85-2,.39-4.1.69-6.1,1.2l-.62.16-.1,0-1.41.43-.41.12c-1,.34-2.09.68-3.15,1a18.94,18.94,0,0,1-3.18.58l-1.62.07c-.53,0-1,.08-1.58.15l-.39.07c-.87.15-1.73.39-2.61.47-.25,0-.52,0-.77.07s-.49.08-.74.1a9.7,9.7,0,0,0-1.53.2l-.22.06a7,7,0,0,0-2.76,2.1h0a16.11,16.11,0,0,1-1.24,1.59l-.5.5c-.19.16-.36.31-.55.45s-.38.28-.57.4-.43.27-.65.39l-.35.19-.07,0-.48.24c-.39.19-.79.36-1.2.52l0,0h0l-.13.09c-.42.22-.85.43-1.29.62a1.36,1.36,0,0,1-.25.11l-.28.13h0c-.21.09-.42.18-.64.25a19.61,19.61,0,0,1-1.88.72l-2.82,1.2-.62.28-.19.09-1.45.66"/><path class="cls-7" d="M1049.27,550.82a1.48,1.48,0,0,1,.27-.1l-2.82,1.2-.62.28.36-.18Z"/><path class="cls-7" d="M1049.54,550.72c.58-.25,1.24-.48,1.88-.72A19.61,19.61,0,0,1,1049.54,550.72Z"/><path class="cls-7" d="M1053.63,549l.4-.16-.13.09c-.42.22-.85.43-1.29.62A7.6,7.6,0,0,0,1053.63,549Z"/><path class="cls-7" d="M1096.15,535.79a45.56,45.56,0,0,1,5.44-1l-6.16,1.16Z"/><path class="cls-34" d="M1137.17,522.55l73-19.11h0l7.78-2h0c-.06.18-.11.35-.16.52a.78.78,0,0,1-.05.14,16.63,16.63,0,0,1-.78,2.16,9.85,9.85,0,0,1-.61,1.16c-.09.15-.18.31-.28.46s-.18.29-.28.43l0,0-.32.42c-.12.15-.24.28-.36.42s-.36.39-.56.58h0l-.07.06a.1.1,0,0,1,0,.05l-.18.16-.06.06-.26.21-.51.39-.33.24-.48.33-.26.16-.07,0a30.29,30.29,0,0,1-9.09,3.06l-1.4.3c-.66.19-1.33.37-2,.51-1.72.36-3.45.71-5.16,1.08-3.78.8-7.54,1.62-11.32,2.44h-.15l-2.46.53h0l-.82.2-3.66.79-7.29,1.59c-4.69,1-9.32,2.13-14,3l-.16,0c-1.29.28-2.57.57-3.87.84l-.15,0-1.14.26-2.39.57q-3.18.72-6.34,1.38c-1,.21-2.07.43-3.11.6l-.16,0-8.79,1.9c-.65.2-1.3.38-1.95.56a51.7,51.7,0,0,1-6.16,1.25l-.46.05-1.15.25c-.39.14-.78.28-1.18.4a24.11,24.11,0,0,1-3,.76c-.77.13-1.55.19-2.31.35-1.76.35-3.46,1.13-5.25,1h0l-.25.06c-.24.1-.5.19-.75.27h0a4.16,4.16,0,0,1-1.48.64c-.3.07-.59.15-.88.2h0c-.24.06-.47.1-.69.14l-.41.07-.4.07-.72.11h-.17a45.56,45.56,0,0,0-5.44,1l-.72.19h-.06l-.06,0-.9.22c-.37.1-.76.18-1.14.27l-1.73.35c-1.55.3-3.11.57-4.66.85-2,.39-4.1.69-6.1,1.2l-.62.16-.1,0-1.41.43-.41.12c-1,.34-2.09.68-3.15,1a18.94,18.94,0,0,1-3.18.58l-1.62.07c-.53,0-1,.08-1.58.15l-.39.07c-.87.15-1.73.39-2.61.47-.25,0-.52,0-.77.07s-.49.08-.74.1a9.7,9.7,0,0,0-1.53.2l-.22.06a7,7,0,0,0-2.76,2.1h0a16.11,16.11,0,0,1-1.24,1.59l-.5.5c-.19.16-.36.31-.55.45s-.38.28-.57.4-.43.27-.65.39l-.35.19-.07,0-.48.24c-.39.19-.79.36-1.2.52l0,0h0l-.4.16a7.6,7.6,0,0,1-1,.55,1.36,1.36,0,0,1-.25.11l-.3.13c-.21.09-.42.18-.64.25-.64.24-1.3.47-1.88.72a1.48,1.48,0,0,0-.27.1l-2.81,1.2-.36.18-.19.09-1.45.66h0l-.72.3-.69.26,0,0-.14.06-.8.25c-.32.12-.65.22-1,.31l-.13,0-.13,0-.41.1-.53.11-.38.05-.46,0H1039l-.37,0a6.69,6.69,0,0,1-2-.27h0l-.6-.15c-.15-.06-.31-.11-.45-.18l-.3-.14h0a3.53,3.53,0,0,1-.32-.21l-.14-.1-.32-.29a2.68,2.68,0,0,1-.42-.58c0-.08-.12-.15-.16-.23v0a.51.51,0,0,1-.11-.16,2,2,0,0,1-.21-.38,4.92,4.92,0,0,1-.41-1.57h0l0-.46.22-.06h0l.13,0,2-.51h0l.23-.06,4.79-1.26h0l.25-.07,2.72-.71.24-.07,6.65-1.73.23-.07,1.3-.33h0l.2-.06,7.94-2.07h0l1.27-.34.87-.23.16,0h0l3.18-.84h0l8.17-2.14L1106,530.7l.65-.17h0l4.45-1.16h0l3.32-.87.09,0Z"/><path class="cls-31" d="M1099.58,398.9a135.78,135.78,0,0,0,6.18,12.94c2.63,4.66,5.86,9.15,6.85,14.4a45.49,45.49,0,0,1,.41,8.17A89.8,89.8,0,0,0,1116.9,460c2.48,8.14,6.14,16,6.87,24.51.45,5.06-.18,10.16.2,15.23a4.61,4.61,0,0,0,1.07,3.1,4.78,4.78,0,0,0,2.37,1c5.2,1.15,10.88,2.05,15.66-.3a19.06,19.06,0,0,0,7-6.64c6.79-10,8.45-22.85,6.69-34.82s-6.66-23.23-12.13-34a318.73,318.73,0,0,0-16.25-28.31c-4.43-6.88-9.35-13.8-16.36-18-3.77-2.27-11.27-4.45-14.53-.08C1094,386.3,1097.66,394.49,1099.58,398.9Z"/><path class="cls-7" d="M1218.59,496.24a23,23,0,0,1-.57,5.16c0,.22-.1.43-.17.65a16.63,16.63,0,0,1-.78,2.16,9.85,9.85,0,0,1-.61,1.16c-.09.15-.18.31-.28.46a11.2,11.2,0,0,1-1,1.28c-.18.21-.37.41-.57.61l-.07.06-.54.48-.51.39-.33.24-.48.32-.26.17-.07,0a30.29,30.29,0,0,1-9.09,3.06l-1.4.3-18.64,4-2.46.53h0l-25.8,5.58-.16,0c-1.29.28-2.57.57-3.87.84l-.15,0-13,2.81-.16,0-8.79,1.9-8.57,1.86-1.15.25-11.75,2.54h0l-.25.06-.5.11s0,0,0-.07c-.15-.88-.34-1.77-.57-2.64a39.39,39.39,0,0,0-6.62-13.75,17.7,17.7,0,0,0-1.65-1.74A23,23,0,0,1,1094,511a1.51,1.51,0,0,1-.21-.82c.31-2.12,5-2.7,6.49-3.18l9.48-3c4.73-1.52,9.49-3,14.23-4.54l4.71-1.51c2.23-14.54-4.32-28.78-8.57-42.86-6.66-22.12-7.67-46.13-1.91-68.43a113,113,0,0,1,4.14-12.8,30.55,30.55,0,0,1,1.37-3c7.13-13.81,21-13.5,33-2.67,5.47,4.91,8.9,11.63,12.21,18.19q19.83,39.27,39.63,78.53c2.12,4.2,4.26,8.49,6,12.88C1217,483.69,1218.65,489.85,1218.59,496.24Z"/><path class="cls-35" d="M1095.88,311.76a3.15,3.15,0,0,0-.39,1.48,1.11,1.11,0,0,0,.91,1.09c1,.06,3.65-5.84,4.06-6.74.67-1.42,3.06-5.8,2.5-7.35-1-2.78-3,2.29-3.25,3Z"/><path class="cls-7" d="M1104.56,289.35a5.91,5.91,0,0,1,1.39-2,2.06,2.06,0,0,1,2.27-.34l-11.71,26.24c-.4.9-1,2-2,1.85-3.89-.43,2.23-10.12,3-11.66Q1100.94,296.37,1104.56,289.35Z"/><path class="cls-7" d="M1118.54,312.61a242.43,242.43,0,0,0-17.49,18.2,6.5,6.5,0,0,0-1.35,1.95c-.31.83-.3,3,.87,3.26,1,.19,2.39-2.23,2.92-2.85,1.88-2.19,3.86-4.29,5.77-6.45C1113,322.51,1116.65,318,1118.54,312.61Z"/><path class="cls-35" d="M1056.39,348.38a64.43,64.43,0,0,0,13.49,3.33c4.62.46,9.48-.17,13.42-2.61,2.75-1.71,5-4.24,7.83-5.72,1.36-.7,2.83-1.15,4.24-1.75a44.33,44.33,0,0,0,9.68-6.3c-1.2,4.74-4.73,8.47-8.12,12-2.14,2.21-4.28,4.42-6.51,6.54-3.24,3.09-7.08,6.65-11.6,7.56s-9.46-.19-13.65-2.17a64.55,64.55,0,0,1-10.72-6.89c-.8-.6-7.47-5.19-4.38-6C1051.34,346,1055.09,348,1056.39,348.38Z"/><path class="cls-24" d="M1036.64,438.24c-.23.38-.45.76-.66,1.15a21.32,21.32,0,0,1,22.67-14.25c3.31.39,8.69,2.36,9.21,6.22-5.62-3.38-10.81-5.67-17.57-3.8a22.12,22.12,0,0,0-8.19,4.35,24.65,24.65,0,0,0-3.3,3.32c-.5.6-1,1.23-1.42,1.87s-1.1,1.35-1.1,2a92.21,92.21,0,0,1-3.88-11c.25,1.86,1.55,3.42,2.13,5.21.25.8.37,1.63.62,2.43a3.57,3.57,0,0,0,1.39,2Z"/><path class="cls-7" d="M1133.85,341.61h167.64a4.77,4.77,0,0,1,4.77,4.77v6.17a0,0,0,0,1,0,0H1129.08a0,0,0,0,1,0,0v-6.17A4.77,4.77,0,0,1,1133.85,341.61Z" transform="translate(2435.34 694.16) rotate(-180)"/><circle class="cls-36" cx="1278.02" cy="319.63" r="20.01"/><rect class="cls-36" x="1272.4" y="263.67" width="11.57" height="39.39" transform="translate(2556.36 566.73) rotate(-180)"/><rect class="cls-36" x="1269.58" y="258.67" width="16.88" height="5" rx="0.99" transform="translate(2556.05 522.34) rotate(-180)"/><rect class="cls-37" x="1272.4" y="263.67" width="11.57" height="2.4" transform="translate(2556.36 529.73) rotate(-180)"/><path class="cls-2" d="M1259.84,319.63c0-.25,0-.5,0-.75s-.07-.5.14-.5h35.76a1.82,1.82,0,0,1,.33,0c.1,0,.09.07.09.15s0,.24,0,.36,0,.49,0,.74a18.19,18.19,0,0,1-36.37,0Z"/><path class="cls-36" d="M1203.55,288.28v47.39a4,4,0,0,0,4,4h32.41a4,4,0,0,0,4-4V288.28h-38.09L1218,315.37l5.6,12.4a.79.79,0,0,1-.38,1,.78.78,0,0,1-1-.4l-5.9-13-12.25-27.09Z"/><path class="cls-36" d="M1243.88,302.59l8.31-12.74s.39-1-.47-1.17-7.84-.4-7.84-.4Z"/><polygon class="cls-38" points="1204.07 288.28 1216.32 315.37 1218.04 315.37 1205.79 288.28 1204.07 288.28"/><path class="cls-36" d="M1191.12,259.45a.68.68,0,0,0,.07.33L1204,288l.12.26h1.72l-.24-.52-12.94-28.62a.79.79,0,0,0-1-.4A.75.75,0,0,0,1191.12,259.45Z"/><polygon class="cls-37" points="1203.95 288.02 1204.07 288.28 1205.79 288.28 1205.55 287.76 1203.95 288.02"/><rect class="cls-37" x="1234.71" y="304" width="7.71" height="0.52" transform="translate(2477.13 608.52) rotate(-180)"/><rect class="cls-37" x="1234.71" y="306.92" width="7.71" height="0.52" transform="translate(2477.13 614.35) rotate(-180)"/><rect class="cls-37" x="1234.71" y="309.83" width="7.71" height="0.52" transform="translate(2477.13 620.19) rotate(-180)"/><rect class="cls-37" x="1234.71" y="312.75" width="7.71" height="0.52" transform="translate(2477.13 626.02) rotate(-180)"/><path class="cls-2" d="M1205.41,315.37v19.57a2.87,2.87,0,0,0,2.86,2.87h30.88a2.88,2.88,0,0,0,2.87-2.87V315.37h-24l5.6,12.4a.79.79,0,0,1-.38,1,.78.78,0,0,1-1-.4l-5.9-13Z"/><rect class="cls-37" x="1234.71" y="315.67" width="7.71" height="0.52" transform="translate(2477.13 631.86) rotate(-180)"/><rect class="cls-37" x="1234.71" y="318.37" width="7.71" height="0.52" transform="translate(2477.13 637.26) rotate(-180)"/><rect class="cls-37" x="1234.71" y="321.29" width="7.71" height="0.52" transform="translate(2477.13 643.1) rotate(-180)"/><rect class="cls-37" x="1234.71" y="324.21" width="7.71" height="0.52" transform="translate(2477.13 648.93) rotate(-180)"/><rect class="cls-37" x="1234.71" y="327.12" width="7.71" height="0.52" transform="translate(2477.13 654.77) rotate(-180)"/><rect class="cls-37" x="1234.71" y="330.04" width="7.71" height="0.52" transform="translate(2477.13 660.61) rotate(-180)"/><rect class="cls-36" x="1160.09" y="268.88" width="13.34" height="53.35" transform="translate(2333.52 591.11) rotate(-180)"/><rect class="cls-36" x="1158.43" y="263.67" width="16.67" height="5.21" rx="1.06" transform="translate(2333.52 532.55) rotate(-180)"/><rect class="cls-37" x="1160.09" y="268.86" width="13.34" height="2.39" transform="translate(2333.52 540.11) rotate(-180)"/><path class="cls-36" d="M1173.43,316.39l16.88,21.42s1.25,1.82-1.25,1.82h-45s-.84-.21,0-1.82,16-21.42,16-21.42Z"/><path class="cls-39" d="M1176.33,324.62l10.32,12.74h-39l8.6-12.74s3.44,5.24,8.36,4.85S1172.5,323.61,1176.33,324.62Z"/><path class="cls-7" d="M1058.07,316.66a20.16,20.16,0,0,1,8.25-2.14c4-.14,8.1.8,12.14.53a36.62,36.62,0,0,0,9.25-2.17c2.56-.88,5.39-1.81,7.89-.78a8.29,8.29,0,0,1,2.84,2.15c5.47,5.95,5.72,16,3.24,23.35a10.8,10.8,0,0,1-1.22,2.65,13.8,13.8,0,0,1-1.72,1.94l-5,5c-.82.81-1.64,1.62-2.48,2.39a44.6,44.6,0,0,1-11.82,7.78,15.49,15.49,0,0,1-6.65,1.63c-3.75-.07-7.13-2.15-10.29-4.16L1052,348.17a57,57,0,0,1-9.53-7,39.65,39.65,0,0,1-6.94-9.66c-.62-1.17-2.41-3.55-2.28-4.9.18-1.94,1.55-1.42,3.24-1.51,4.41-.23,8.84-1,12.69-3.22C1052.32,320,1055.08,318.09,1058.07,316.66Z"/><path class="cls-18" d="M1034,266.16c-4,4.64-4.83,11.29-4.17,17.39s2.57,12,3.3,18.1c.85,7,.13,14.22,1.9,21,4.57,17.59,24.59,29.22,25.45,47.37.46,9.62-4.74,18.46-8.2,27.45-3.36,8.76-5.13,18.43-3,27.57s8.64,17.61,17.66,20.22a20.29,20.29,0,0,1-18.14-4.51c-4.59-4.14-9-11-15-9.18-1.55,5.63.3,11.6,2.49,17s4.78,10.89,4.76,16.73-3.67,12.17-9.45,13c.62-.09-1.54-10.49-1.8-11.43a55.24,55.24,0,0,0-4.47-11.39c-2.46-4.7-5.71-10.25-9.53-14a6.41,6.41,0,0,0-4.2-2.18,5.39,5.39,0,0,0-4.06,2.25,29.12,29.12,0,0,0-2.42,4.16c-2.38,4.31-6.54,8-11.46,8.3a5.25,5.25,0,0,0,.78-4.87,36.08,36.08,0,0,0-2-4.7c-2.85-6.63-1.33-14.47,2.13-20.8,1.6-2.92,3.8-5.67,5-8.8.92-2.45.66-5.42.85-8,.45-6.44-.41-13.36,2.64-19.3,2-3.94,5.62-7,7.17-11.13,2-5.44.17-11.52.61-17.32.31-4.11,1.8-8.07,2.16-12.18.7-8.09-3-15.84-4.52-23.81-3.45-17.77,3.77-35.69,10.83-52.36,3-7.08,6.06-14.25,10.77-20.31s11.38-11,19-12c3.12-.41,6.32-.16,9.4-.79,2.71-.55,5.23-1.77,7.89-2.49,8.22-2.24,17.14.47,24.19,5.24s12.55,11.45,18,18l14.68,17.88c3.65,4.44,7.32,8.91,10.06,14,4.4,8.13,6.25,17.53,11.19,25.34,4.51,7.14,11.71,13.36,12.17,21.79.24,4.47-1.52,8.77-2.58,13.12s-1.29,9.39,1.54,12.85c1.51,1.86,3.72,3,5.36,4.77,4.57,4.88,3.48,12.73,1.09,19s-5.85,12.53-5.09,19.17c.94,8.25,9.38,14.86,17.61,13.8,1.54-.2,3.24-.58,4.51.3,2.44,1.7.42,5.64-2.11,7.21s-5.88,3-6.24,5.92c-.39,3.2,3.52,5.54,6.68,4.9s5.54-3.15,7.72-5.54c2.36,3,2,7.59-.09,10.82s-5.6,5.29-9.21,6.61a33.32,33.32,0,0,1-17.81,1.27c-2.93-.57-9.13-4.59-11.63-2.56a6.91,6.91,0,0,0-1.8,2.61c-.84,1.84-1.46,4-.67,5.85a25.21,25.21,0,0,0,1.33,2.23c4.59,8.47-2.59,19.69-11.86,20.14,1.72-21.4-9.62-41.4-20.12-60.12s-20.88-39.57-17.08-60.7c2-10.92,7.6-20.84,10.32-31.6s1.65-23.84-7.16-30.57c-4.58-3.5-10.56-4.74-15.15-8.23-5.8-4.42-8.48-11.68-12-18.06s-8.89-12.44-16.6-12.16C1048.37,258.66,1038.91,260.49,1034,266.16Z"/><path class="cls-12" d="M1114.06,520.47a31,31,0,0,1-2.3,7.64c-.19.43-.4.85-.62,1.26a8.82,8.82,0,0,1-3,3.39,6.81,6.81,0,0,1-1.08.54c-.24.1-.5.19-.75.27h0c-.68.21-1.38.36-2.07.5q-9.1,1.92-18.29,3.5a36.83,36.83,0,0,0-3.9.92h0l-1.89.56-.1,0-1.41.43-.41.12a30.62,30.62,0,0,1-7.88,1.5l-1,0h-1.55c-.77,0-1.55.05-2.3.12h0a9.28,9.28,0,0,0-3.18.84h0l-.06,0h0a.61.61,0,0,1-.14.07,6,6,0,0,0-1.2.84,12,12,0,0,0-1.2,1.37h0a16.11,16.11,0,0,1-1.24,1.59l-.5.5c-.19.16-.36.31-.55.45s-.38.28-.57.4-.43.27-.65.39l-.35.19-.07,0-.48.24c-.39.19-.79.36-1.2.52l0,0h0l-.4.16c-1,.4-2.07.76-3.08,1.17-1.37.56-2.72,1.24-4.09,1.89l-.36.18-.19.09-1.45.66h0l-.73.3-.69.26,0,0-.14.06-.8.25a11,11,0,0,1-5.25.48l-.2,0h0l-.6-.15c-.15-.06-.31-.11-.45-.18l-.3-.14h0a5.27,5.27,0,0,1-.46-.31l-.32-.29a2.68,2.68,0,0,1-.42-.58,5.23,5.23,0,0,1-.56-1.7c0-.33-.09-.67-.12-1h0a.86.86,0,0,1,0-.16c0-.4,0-.81,0-1.23a4.36,4.36,0,0,1,0-.51q0-.18,0-.33c0-.14,0-.27,0-.41a.25.25,0,0,0,0-.09,18.33,18.33,0,0,1,.5-2.58,1,1,0,0,0,0-.18l0-.06v0a.08.08,0,0,1,0,0h0a.14.14,0,0,1,0-.06c.06-.24.13-.47.2-.7a6.59,6.59,0,0,1,.25-.75c.09-.28.19-.56.3-.82s.16-.42.25-.63.25-.56.38-.83.16-.34.25-.5.22-.41.34-.61.23-.39.35-.57a58.62,58.62,0,0,1,6.09-8.11c.29-.32.58-.61.88-.9s.81-.76,1.23-1.12.58-.49.87-.73l0,0c.35-.27.69-.52,1-.77s.64-.45,1-.66l.34-.21c.3-.2.61-.38.93-.57h0l.77-.44.53-.28c.4-.21.8-.4,1.2-.59s.66-.3,1-.45c.71-.31,1.43-.59,2.17-.86l.81-.28.1,0a.42.42,0,0,1,.13,0c.38-.14.76-.26,1.16-.38l.4-.13.81-.22c.28-.09.56-.16.84-.23.88-.23,1.78-.44,2.67-.63,2.52-.55,5.08-1,7.6-1.26a3.62,3.62,0,0,0,.46-.06,32.45,32.45,0,0,0,6.63-1.32l.08,0c.68-.24,1.34-.52,2-.82.39-.17.76-.35,1.14-.55.82-.4,1.64-.83,2.46-1.25,1.46-.73,3-1.46,4.55-2.15A49.79,49.79,0,0,1,1094,511c4.6-1.14,9.3-1.35,13.68.37a18,18,0,0,1,3.61,1.93,7.21,7.21,0,0,1,2.49,2.6A7.66,7.66,0,0,1,1114.06,520.47Z"/><path class="cls-24" d="M1018.74,518.91a20.89,20.89,0,0,1-7.6.2c.14-.44.28-.87.4-1.31,2.26-8,1.82-16.53,1.13-24.79-.27-3.22-3.16-23.39.26-23.75,1.39,4.66,0,9.95.6,14.76.34,2.64,1.14,5.19,1.66,7.8a46.12,46.12,0,0,1,.48,14.12,31.08,31.08,0,0,0-.37,7.07,9.83,9.83,0,0,0,1,3.35A6.41,6.41,0,0,0,1018.74,518.91Z"/><path class="cls-12" d="M1059.66,494.41a7.42,7.42,0,0,1-.71,3.44,3.07,3.07,0,0,1-.49.79c-1.55,1.81-4.61,1.53-6.73,1.9-1.77.31-3.57.66-5.37.86l-.95.1a2.64,2.64,0,0,0-1.37.53,4,4,0,0,0-1.22,1.67,7.24,7.24,0,0,0-.4,1.22,2.17,2.17,0,0,0-.07.35,12.45,12.45,0,0,1-.37,2.58c-.23.74-.86,1.21-.66,2a16.18,16.18,0,0,0,1.34,2.34,8.16,8.16,0,0,1,.83,2.73,8.54,8.54,0,0,1-1.63,5.56,2.84,2.84,0,0,1-1.92,1.43c.28,0,.5.24.64.5a7.43,7.43,0,0,1,.8,4.36,5.16,5.16,0,0,1-2.31,3.68,6.94,6.94,0,0,1-2,.76,17.68,17.68,0,0,1-6,.47,1.56,1.56,0,0,1,1.37,2.07,2.67,2.67,0,0,1-.9,1c-2.33,1.72-5.21,2.38-8,2.94s-5.73,1.4-8.61,2.12c-4.11,1-8.26,1.94-12.39,2.81-.63.13-1.29.26-1.94.36h-.05a.6.6,0,0,0-.12,0c-.37.06-.76.1-1.13.13a11,11,0,0,1-2,0,6.62,6.62,0,0,1-1.71-.38,7.5,7.5,0,0,1-4.24-4.44,10.5,10.5,0,0,1-.75-4.1,17.12,17.12,0,0,1,1-5.13c.07-.23.16-.45.24-.68.25-.67.52-1.34.81-2s.67-1.48,1-2.22q1.65-3.57,3.32-7.14l-.45,1.27a151.34,151.34,0,0,1,8.31-17.39,16.21,16.21,0,0,1,2.69-4c2.29-2.27,5.57-3.08,8.63-3.64a43,43,0,0,0,7.13-2.41,14.32,14.32,0,0,1,5.45-1,26.07,26.07,0,0,0,5.79,0c1.07-.2,2.09-.61,3.17-.74,2.47-.32,4.88.8,7.35,1.14a24.68,24.68,0,0,0,3.44.13l4.7,0a13.1,13.1,0,0,1,3.13.23,4.38,4.38,0,0,1,2.62,1.61A4.06,4.06,0,0,1,1059.66,494.41Z"/><path class="cls-27" d="M1041.28,501.14c-.8-.11-1.61-.22-2.4-.3a55.69,55.69,0,0,1-5.63-.81,30.58,30.58,0,0,1-5.76-1.89c-1.65-.71-3.92-1.55-5.22-2.8,1.68-.1,3.31-.06,5-.3a19.17,19.17,0,0,1,5.18-.26,28.84,28.84,0,0,1,6.86,1.48c2.23.86,5.62,2.74,8.06,2.37a.75.75,0,0,0,.65-.5,1.31,1.31,0,0,0,0-.59,7,7,0,0,1,.07-2.33l.47-3.42a2.24,2.24,0,0,1,.2-.8,1.32,1.32,0,0,1,2.08-.25,2,2,0,0,1,.39.86c.52,2,0,4.1-.14,6.16-.2,2.21,3.34.49,4.58.2l1.66-.39a6.8,6.8,0,0,0,1.57-.38,8.72,8.72,0,0,1-.86,1.59,3.45,3.45,0,0,1-.42.51,2.83,2.83,0,0,1-.71.42,12.35,12.35,0,0,1-3.18.73c-1.14.16-2.29.2-3.43.36a28.34,28.34,0,0,1-5.16.71C1043.83,501.46,1042.55,501.31,1041.28,501.14Z"/><path class="cls-27" d="M1034.39,519.44a22.08,22.08,0,0,1,3.51.63,12.12,12.12,0,0,1,1.63.57c.46.21,1.15.38,1.35.91a2.24,2.24,0,0,1-1,.41.45.45,0,0,1,.46.14,1.31,1.31,0,0,1,.24.45l.34.84a2.45,2.45,0,0,1,.25.81,5.88,5.88,0,0,0-1.89-1.92,9.36,9.36,0,0,0-2.55-1.06,16.3,16.3,0,0,0-1.82-.37c-2-.32-4.1-.5-6.15-.68-3.89-.35-8.53-.11-12.26-1.19.49-1.1,7.11-.26,8.48-.2C1028.16,518.9,1031.28,519.09,1034.39,519.44Z"/><path class="cls-27" d="M1039.82,529.9a2.18,2.18,0,0,1-.52.53,4,4,0,0,1-1.12.47,32.85,32.85,0,0,1-5.65,1.12,2.11,2.11,0,0,1-.4,2.11,6.31,6.31,0,0,1-2.45,1.81,25.05,25.05,0,0,1-5.57,1.62c-1.89.39-3.73.89-5.6,1.34l-5.56,1.3-1.7.39q-3.57.84-7.16,1.63c-1.15.26-2.3.57-3.48.77h-.05a.6.6,0,0,0-.12,0c-.37.06-.76.1-1.13.13a8.05,8.05,0,0,1-1.77-.06l-.39-.06a8.44,8.44,0,0,1-5.78-4.71,9.43,9.43,0,0,1-.9-2.78,12.39,12.39,0,0,1,.81-6.34,16.54,16.54,0,0,1,1.4-2.79c.19-.31.4-.63.61-.92a14.29,14.29,0,0,0-.42,1.59,17.13,17.13,0,0,0-.27,1.7,15.45,15.45,0,0,0,0,3.66c.39,3,2.18,6.35,5.22,6.71,2.11.23,4-1,6.06-1.72a14.31,14.31,0,0,1,4-.7,32.68,32.68,0,0,1,4.71.24,41.9,41.9,0,0,0,7.49.43,16.12,16.12,0,0,0,4.44-1l2.32-.8a8.67,8.67,0,0,1,2.21-.77,3.31,3.31,0,0,0,1.73-1,1,1,0,0,0,.18-.91,1.27,1.27,0,0,0-.77-.68,16.44,16.44,0,0,0-2.71-.53l-2.93-.71c-.52-.11-1-.22-1.54-.35l-4.27-1c2,.22,4,.36,6,.44l1.62.06c2.32.07,4.64,0,7-.1a62.08,62.08,0,0,0,6.76-.84A2,2,0,0,1,1039.82,529.9Z"/><path class="cls-27" d="M1106.9,532.85a1.44,1.44,0,0,1-.3.49l-.24.23h0a4.16,4.16,0,0,1-1.48.64c-.3.07-.59.15-.88.2h0c-.24.06-.47.1-.69.14l-.41.07-.4.07-.72.11h-.17a45.56,45.56,0,0,0-5.44,1l-.72.19h-.06l-.06,0-.9.22c-.37.1-.76.18-1.14.27l-1.73.35c-1.55.3-3.11.57-4.66.85-2,.39-4.1.69-6.1,1.2l-.62.16-.1,0-1.41.43-.41.12c-1,.34-2.09.68-3.15,1a18.94,18.94,0,0,1-3.18.58l-1.62.07c-.53,0-1,.08-1.58.15l-.39.07c-.87.15-1.73.39-2.61.47-.25,0-.52,0-.77.07s-.49.08-.74.1a9.7,9.7,0,0,0-1.53.2l-.22.06a7,7,0,0,0-2.76,2.1h0l-.36.36c-.06-.2.12-.52.19-.71s.21-.61.32-.92l.15-.45h0a.3.3,0,0,1,0-.1,2.83,2.83,0,0,1,.14-.41c.1-.26.19-.54.29-.8.43-1.15.86-2.29,1.27-3.45a4.34,4.34,0,0,1,1.94-2.74c1.22-.52,2.58.18,3.82.7a18.27,18.27,0,0,0,8.38,1.26h0a44.31,44.31,0,0,0,10.55-2.34,41.24,41.24,0,0,0,9.67-4.28,18.63,18.63,0,0,0,5.69-5.63,6.31,6.31,0,0,1,1.48-1.69c1-.69,2-.65,2.9,1.32s.15,4,.51,5.94a1.5,1.5,0,0,0,.06.29A3.55,3.55,0,0,1,1106.9,532.85Z"/><path class="cls-24" d="M1177,490.19a7.18,7.18,0,0,0-5.51-5,19.1,19.1,0,0,1,9.11-.19,16,16,0,0,0-8.49-2.35c-3.16-6.85-9-19.5-12.19-26.35-1,.19,1.82,7.39,2.15,8.33q3,8.47,6.46,16.77a1.77,1.77,0,0,1-.4,2.54c-1.48,1.36-3.49,2.74-4.58,4.41,1.8,0,3.63-1,5.47-1.23C1171,486.89,1176.27,487.74,1177,490.19Z"/><path class="cls-24" d="M1076.23,320.36l-7.84.32a33.88,33.88,0,0,0-4.5.39c-3.5.62-6.71,2.69-10.19,3.15,1.28-2.78,7.79-4.25,10.52-4.73A24.58,24.58,0,0,1,1076.23,320.36Z"/><path class="cls-24" d="M1219.29,497a25.74,25.74,0,0,1-1.23,4.36c-.06.18-.11.35-.16.52a.78.78,0,0,1-.05.14,16.63,16.63,0,0,1-.78,2.16,9.85,9.85,0,0,1-.61,1.16c-.09.15-.18.31-.28.46s-.18.29-.28.43l0,0-.32.42c-.12.15-.24.28-.36.42s-.36.39-.56.58h0l-.07.06a.1.1,0,0,1,0,.05l-.5.43-.51.39-.33.24-.48.32-.26.17-.07,0a27.29,27.29,0,0,1-8.07,2.73c-.82.17-1.62.4-2.42.63s-1.33.37-2,.51c-1.72.36-3.45.71-5.16,1.08-3.78.8-7.54,1.62-11.32,2.44h-.15a11.31,11.31,0,0,0-2.46.53h0l-.82.2-3.66.79-7.29,1.59c-4.69,1-9.32,2.13-14,3l-.16,0c-1.3.23-2.58.53-3.87.84l-.15,0-1.14.26-2.39.57q-3.18.72-6.34,1.38c-1,.21-2.07.43-3.11.6l-.16,0c-1,.16-1.89.42-2.86.54-.75.09-1.5.14-2.24.29a24.37,24.37,0,0,0-2.92.84l-.77.23c-.65.2-1.3.38-1.95.56a51.7,51.7,0,0,1-6.16,1.25l-.46.05a4.1,4.1,0,0,0-1,.18l-.2.07c-.39.14-.78.28-1.18.4a24.11,24.11,0,0,1-3,.76c-.77.13-1.55.19-2.31.35-1.76.35-3.46,1.13-5.25,1a6.58,6.58,0,0,0,1.65-1c.84-.73,1.3-1.8,2.26-2.41a15.6,15.6,0,0,1,3-1.29l.15,0,.09,0c3-1.07,6.32-1.92,8.68-4.19a6.78,6.78,0,0,1,2-1.69,5.37,5.37,0,0,1,2.56-.2,76.92,76.92,0,0,0,9.36.16c2.62-.1,5.23-.33,7.83-.63,6.53-.79,13-2.13,19.42-3.47l11.7-2.44c8.85-1.86,17.78-3.72,26.06-7.35a24.38,24.38,0,0,0,7.59-4.75,4.94,4.94,0,0,0,.45-.47h0a20.67,20.67,0,0,0,5-11.71,40.42,40.42,0,0,0,.13-6.78c0-.93-.26-1.85-.38-2.78a9.19,9.19,0,0,1-.16-1.57,6.5,6.5,0,0,0-.14-1.64,5.72,5.72,0,0,1,0-1.24v-.14l.42.91c.24.49.65.94.93,1.42s.58,1.06.83,1.61a32,32,0,0,1,2.59,10A23.25,23.25,0,0,1,1219.29,497Z"/><path class="cls-27" d="M1061.37,530.11a6.62,6.62,0,0,1-1.65.66,6.16,6.16,0,0,0-1.24.72,11.57,11.57,0,0,0-1.91,1.38,10.93,10.93,0,0,0-3.49,6.45c-.27,1-.52,2.06-.7,3.1-.09.45-.16.9-.22,1.36,0,.12,0,.24-.05.36s0,.45-.06.68a7.69,7.69,0,0,0,0,1c.06.59.43,1.28.43,1.82s1.33,1,1.76,1.06l-.16.12,0,0h0l-.13.09c-.42.22-.85.43-1.29.62a1.36,1.36,0,0,1-.25.11l-.28.13h0c-.21.09-.42.18-.64.25a19.61,19.61,0,0,1-1.88.72l-2.82,1.2-.62.28-.19.09-1.25.55-.29.12-1.34.55,0,0-.14.06a12.13,12.13,0,0,1-1.77.56l-.13,0-.13,0c-.59.12-1.18.24-1.78.31H1039a7.73,7.73,0,0,1-1,.06,5.47,5.47,0,0,1-2.86-.7l-.11-.08a3.07,3.07,0,0,1-.59-.49,2.91,2.91,0,0,1-.58-.93v0a6.91,6.91,0,0,1-.39-1.27,5.73,5.73,0,0,1-.14-.91,5.33,5.33,0,0,1,0-.46,10.34,10.34,0,0,1,0-1.24,4.36,4.36,0,0,1,0-.51q0-.18,0-.33c0-.14,0-.27,0-.41a.25.25,0,0,0,0-.09l0-.27c.06-.48.13-1,.22-1.42.06-.24.11-.47.18-.7a.79.79,0,0,1,.07-.22.44.44,0,0,0,0-.15l0-.06v0a.22.22,0,0,0,0-.11s0,0,0,0h0c.24,1,.49,2,.82,2.9h0c0,.07.05.14.07.21a14.86,14.86,0,0,0,.75,1.75h0l.14.26a2.2,2.2,0,0,0,.77.91,1.73,1.73,0,0,0,1.16.14l.11,0h.05l.14-.07.06,0a4.89,4.89,0,0,0,2.6-2.52h0c.16-.27.3-.54.44-.81s.29-.58.44-.86l1.16-2.37a51.59,51.59,0,0,0,3.15-7.39,6,6,0,0,1,.26-.71,30.26,30.26,0,0,1,2.43-4.39,5.62,5.62,0,0,1,2.46-2.39c.41-.18.86-.28,1.28-.44a9,9,0,0,0,1.56-.89l-2.05,1.42a10,10,0,0,0-3.48,3.42c-1.76,3.53-3.67,7.2-4.39,11.12a18.19,18.19,0,0,0-.27,2.22q0,.64,0,1.29h0a10,10,0,0,0,.33,2.3,1,1,0,0,0,.25.57.87.87,0,0,0,.55.27.9.9,0,0,0,.74-.23,9.44,9.44,0,0,0,4-2.82,7,7,0,0,0,1-1.89h0c.11-.28.2-.55.29-.84s.27-.85.39-1.28l.17-.61,0-.05c.49-1.71.93-3.47,1.5-5.16.12-.23.23-.46.34-.69a22,22,0,0,1,2.53-4.41A4.38,4.38,0,0,1,1057,531a4.71,4.71,0,0,1,1.23-.36Z"/><polyline class="cls-32" points="968 559.78 968 559.79 968 559.8 967.98 559.91"/><polyline class="cls-32" points="984.52 556.85 984.74 556.8 984.75 556.8 1000.16 553.91 1002.14 553.53"/><line class="cls-32" x1="1104.87" y1="534.21" x2="1101.76" y2="534.8"/><path class="cls-40" d="M1051.29,524.35s7.73,5.22,13.69-3.94C1065,520.41,1055.46,522,1051.29,524.35Z"/><polyline class="cls-32" points="1095.31 536.01 1082.09 538.49 1082.06 538.5 1071.13 540.55 1071.12 540.56 1067.83 541.17 1067.83 541.17 1062.62 542.16 1062.59 542.16 1062.1 542.25 1061.27 542.41 1060.04 542.65 1052.12 544.14 1051.9 544.17 1050.84 544.37 1050.63 544.41 1043.69 545.72 1043.45 545.76 1041.58 546.12 1041.34 546.16 1034.91 547.37 1034.7 547.41 1034.65 547.42 1033.38 547.65 1033.1 547.71"/><path class="cls-41" d="M1049,476.16h15.47a0,0,0,0,1,0,0v36.56a7.73,7.73,0,0,1-7.73,7.73h0a7.73,7.73,0,0,1-7.73-7.73V476.16a0,0,0,0,1,0,0Z" transform="translate(37.09 -72.06) rotate(3.98)"/><path class="cls-39" d="M1049.81,496.18h12.55a0,0,0,0,1,0,0V512.3a6.28,6.28,0,0,1-6.28,6.28h0a6.28,6.28,0,0,1-6.28-6.28V496.18a0,0,0,0,1,0,0Z" transform="translate(37.72 -72) rotate(3.98)"/><ellipse class="cls-42" cx="1058.37" cy="474.55" rx="5.43" ry="8.6" transform="translate(511.58 1497.47) rotate(-86.02)"/><path class="cls-43" d="M1058.73,469.29c4.37.3,7.81,2.67,8,5.4,0-.15,0-.3.06-.44.2-2.91-3.37-5.53-8-5.85s-8.51,1.78-8.71,4.69c0,.15,0,.29,0,.44C1050.64,470.86,1054.37,469,1058.73,469.29Z"/><ellipse class="cls-44" cx="1058.4" cy="474.11" rx="4.83" ry="8.33" transform="translate(512.05 1497.09) rotate(-86.02)"/><path class="cls-39" d="M1050.6,495.77l.34-4.82a6.64,6.64,0,0,0,5.54,2.81c3.84,0,6.84.05,6.74,1.46l-.15,2.16-12.52-.87Z"/><circle class="cls-45" cx="1054.34" cy="499.56" r="1.85"/><path class="cls-45" d="M1052.78,497.88a.43.43,0,0,1-.6,0c-.16-.16,0-.29.13-.46s.31-.3.48-.14A.44.44,0,0,1,1052.78,497.88Z"/><path class="cls-45" d="M1054.43,497.22a.42.42,0,0,1-.4-.45c0-.24.19-.23.43-.21s.43,0,.42.26A.44.44,0,0,1,1054.43,497.22Z"/><path class="cls-45" d="M1056.05,498.05a.41.41,0,0,1,.07-.59c.18-.15.29,0,.44.18s.27.34.08.48A.41.41,0,0,1,1056.05,498.05Z"/><path class="cls-45" d="M1056.66,499.71a.44.44,0,0,1,.46-.4c.23,0,.22.2.2.44s0,.43-.26.41A.43.43,0,0,1,1056.66,499.71Z"/><path class="cls-45" d="M1055.73,501.36a.42.42,0,0,1,.59.08c.15.18,0,.29-.18.44s-.34.27-.49.08A.43.43,0,0,1,1055.73,501.36Z"/><path class="cls-45" d="M1054.1,501.88a.43.43,0,0,1,.39.46c0,.23-.2.22-.43.2s-.43,0-.42-.27A.43.43,0,0,1,1054.1,501.88Z"/><path class="cls-45" d="M1052.58,501a.43.43,0,0,1-.06.6c-.18.15-.29,0-.44-.17s-.28-.34-.1-.49A.43.43,0,0,1,1052.58,501Z"/><path class="cls-45" d="M1052,499.38a.44.44,0,0,1-.45.41c-.23,0-.23-.2-.21-.43s0-.43.25-.42A.42.42,0,0,1,1052,499.38Z"/><rect class="cls-45" x="1054.29" y="497.08" width="0.24" height="0.73" transform="translate(37.03 -71.91) rotate(3.98)"/><rect class="cls-45" x="1052.15" y="499.05" width="0.24" height="0.73" transform="translate(1623.43 -515.7) rotate(93.98)"/><rect class="cls-45" x="1056.31" y="499.34" width="0.24" height="0.73" transform="translate(1628.17 -519.54) rotate(93.98)"/><rect class="cls-45" x="1055.75" y="497.84" width="0.24" height="0.73" transform="translate(773.44 -634.62) rotate(50.74)"/><rect class="cls-45" x="1052.62" y="500.5" width="0.24" height="0.73" transform="translate(774.35 -631.23) rotate(50.74)"/><rect class="cls-45" x="1052.8" y="497.67" width="0.24" height="0.73" transform="translate(2152.76 114.59) rotate(135.46)"/><rect class="cls-45" x="1055.42" y="500.88" width="0.24" height="0.73" transform="translate(2159.49 118.24) rotate(135.46)"/><rect class="cls-45" x="1054" y="501.26" width="0.24" height="0.73" transform="translate(37.31 -71.88) rotate(3.98)"/><circle class="cls-45" cx="1059.17" cy="505.02" r="1.47"/><path class="cls-45" d="M1057.94,503.69a.34.34,0,0,1-.48,0c-.13-.13,0-.24.1-.37s.25-.24.38-.11A.34.34,0,0,1,1057.94,503.69Z"/><path class="cls-45" d="M1059.24,503.17a.34.34,0,0,1-.32-.36c0-.19.16-.18.35-.17s.34,0,.33.21A.34.34,0,0,1,1059.24,503.17Z"/><path class="cls-45" d="M1060.53,503.83a.33.33,0,0,1,0-.47c.15-.12.24,0,.36.14s.21.27.06.39A.34.34,0,0,1,1060.53,503.83Z"/><path class="cls-45" d="M1061,505.15a.34.34,0,0,1,.36-.32c.18,0,.17.16.16.35s0,.34-.21.33A.35.35,0,0,1,1061,505.15Z"/><path class="cls-45" d="M1060.27,506.46a.34.34,0,0,1,.48.06c.11.14,0,.23-.15.35s-.27.21-.39.06A.34.34,0,0,1,1060.27,506.46Z"/><path class="cls-45" d="M1059,506.87a.33.33,0,0,1,.3.36c0,.19-.16.18-.34.16s-.34,0-.33-.21A.34.34,0,0,1,1059,506.87Z"/><path class="cls-45" d="M1057.78,506.16a.35.35,0,0,1,0,.48c-.14.12-.24,0-.35-.14s-.22-.27-.08-.38A.34.34,0,0,1,1057.78,506.16Z"/><path class="cls-45" d="M1057.32,504.89a.34.34,0,0,1-.35.32c-.19,0-.18-.16-.17-.34s0-.35.2-.34A.34.34,0,0,1,1057.32,504.89Z"/><rect class="cls-45" x="1059.13" y="503.06" width="0.19" height="0.58" transform="translate(37.45 -72.23) rotate(3.98)"/><rect class="cls-45" x="1057.43" y="504.62" width="0.19" height="0.58" transform="translate(1634.54 -515.07) rotate(93.98)"/><rect class="cls-45" x="1060.73" y="504.85" width="0.19" height="0.58" transform="translate(1638.3 -518.12) rotate(93.98)"/><rect class="cls-45" x="1060.29" y="503.66" width="0.19" height="0.58" transform="translate(779.55 -636.01) rotate(50.74)"/><rect class="cls-45" x="1057.81" y="505.78" width="0.19" height="0.58" transform="translate(780.27 -633.31) rotate(50.74)"/><rect class="cls-45" x="1057.95" y="503.53" width="0.19" height="0.58" transform="translate(2165.59 120.89) rotate(135.46)"/><rect class="cls-45" x="1060.03" y="506.07" width="0.19" height="0.58" transform="translate(2170.94 123.79) rotate(135.46)"/><rect class="cls-45" x="1058.9" y="506.38" width="0.19" height="0.58" transform="translate(37.68 -72.2) rotate(3.98)"/><circle class="cls-45" cx="1052.56" cy="509.77" r="1.47"/><path class="cls-45" d="M1051.33,508.44a.34.34,0,0,1-.48,0c-.13-.13,0-.24.11-.37s.24-.24.37-.11A.34.34,0,0,1,1051.33,508.44Z"/><path class="cls-45" d="M1052.63,507.92a.33.33,0,0,1-.31-.36c0-.18.15-.18.34-.16s.34,0,.33.2A.34.34,0,0,1,1052.63,507.92Z"/><path class="cls-45" d="M1053.92,508.58a.33.33,0,0,1,0-.47c.15-.12.24,0,.36.14s.21.27.06.39A.34.34,0,0,1,1053.92,508.58Z"/><path class="cls-45" d="M1054.41,509.9a.34.34,0,0,1,.36-.32c.19,0,.18.16.16.35s0,.34-.21.33A.35.35,0,0,1,1054.41,509.9Z"/><path class="cls-45" d="M1053.66,511.21a.34.34,0,0,1,.48.06c.11.14,0,.23-.15.35s-.27.21-.38.06A.33.33,0,0,1,1053.66,511.21Z"/><path class="cls-45" d="M1052.38,511.62a.35.35,0,0,1,.31.36c0,.19-.16.18-.35.16s-.34,0-.33-.21A.35.35,0,0,1,1052.38,511.62Z"/><path class="cls-45" d="M1051.17,510.91a.34.34,0,0,1-.05.48c-.14.12-.23,0-.35-.14s-.22-.26-.08-.38A.34.34,0,0,1,1051.17,510.91Z"/><path class="cls-45" d="M1050.71,509.64a.33.33,0,0,1-.35.32c-.19,0-.18-.15-.17-.34s0-.34.2-.34A.34.34,0,0,1,1050.71,509.64Z"/><rect class="cls-45" x="1052.52" y="507.81" width="0.19" height="0.58" transform="translate(37.76 -71.76) rotate(3.98)"/><rect class="cls-45" x="1050.82" y="509.37" width="0.19" height="0.58" transform="translate(1632.21 -503.39) rotate(93.98)"/><rect class="cls-45" x="1054.13" y="509.6" width="0.19" height="0.58" transform="matrix(-0.07, 1, -1, -0.07, 1635.97, -506.44)"/><rect class="cls-45" x="1053.68" y="508.41" width="0.19" height="0.58" transform="translate(780.8 -629.15) rotate(50.74)"/><rect class="cls-45" x="1051.2" y="510.53" width="0.19" height="0.58" transform="translate(781.52 -626.45) rotate(50.74)"/><rect class="cls-45" x="1051.34" y="508.28" width="0.19" height="0.58" transform="translate(2157.61 133.67) rotate(135.46)"/><rect class="cls-45" x="1053.42" y="510.82" width="0.19" height="0.58" transform="translate(2162.95 136.56) rotate(135.46)"/><rect class="cls-45" x="1052.29" y="511.13" width="0.19" height="0.58" transform="translate(37.99 -71.73) rotate(3.98)"/><circle class="cls-45" cx="1058.11" cy="514.06" r="1.47"/><path class="cls-45" d="M1056.88,512.72a.34.34,0,0,1-.48,0c-.13-.13,0-.23.1-.36s.25-.25.38-.11A.33.33,0,0,1,1056.88,512.72Z"/><path class="cls-45" d="M1058.18,512.2a.34.34,0,0,1-.32-.36c0-.18.16-.17.35-.16s.34,0,.33.21A.34.34,0,0,1,1058.18,512.2Z"/><path class="cls-45" d="M1059.47,512.86a.33.33,0,0,1,0-.47c.15-.12.24,0,.35.14s.22.27.07.39A.33.33,0,0,1,1059.47,512.86Z"/><path class="cls-45" d="M1060,514.18a.32.32,0,0,1,.36-.31c.18,0,.17.15.16.34s0,.34-.21.33A.32.32,0,0,1,1060,514.18Z"/><path class="cls-45" d="M1059.21,515.49a.35.35,0,0,1,.48.06c.11.15,0,.24-.15.35s-.27.21-.39.07A.35.35,0,0,1,1059.21,515.49Z"/><path class="cls-45" d="M1057.92,515.9a.34.34,0,0,1,.31.37c0,.18-.16.17-.34.16s-.35,0-.33-.22A.34.34,0,0,1,1057.92,515.9Z"/><path class="cls-45" d="M1056.72,515.2a.34.34,0,0,1,0,.47c-.14.12-.24,0-.36-.14s-.21-.26-.07-.38A.34.34,0,0,1,1056.72,515.2Z"/><path class="cls-45" d="M1056.26,513.92a.34.34,0,0,1-.36.32c-.18,0-.18-.15-.17-.34s0-.34.21-.33A.34.34,0,0,1,1056.26,513.92Z"/><rect class="cls-45" x="1058.07" y="512.09" width="0.19" height="0.58" transform="translate(38.07 -72.13) rotate(3.98)"/><rect class="cls-45" x="1056.37" y="513.65" width="0.19" height="0.58" transform="translate(1642.42 -504.35) rotate(93.98)"/><rect class="cls-45" x="1059.67" y="513.88" width="0.19" height="0.58" transform="matrix(-0.07, 1, -1, -0.07, 1646.18, -507.4)"/><rect class="cls-45" x="1059.23" y="512.7" width="0.19" height="0.58" transform="translate(786.15 -631.87) rotate(50.74)"/><rect class="cls-45" x="1056.75" y="514.81" width="0.19" height="0.58" transform="matrix(0.63, 0.77, -0.77, 0.63, 786.88, -629.17)"/><rect class="cls-45" x="1056.89" y="512.56" width="0.19" height="0.58" transform="translate(2170.11 137.11) rotate(135.46)"/><rect class="cls-45" x="1058.97" y="515.11" width="0.19" height="0.58" transform="translate(2175.46 140.01) rotate(135.46)"/><rect class="cls-45" x="1057.84" y="515.41" width="0.19" height="0.58" transform="translate(38.3 -72.11) rotate(3.98)"/><path class="cls-12" d="M1041.32,500.57c3.29.79,6.54.83,9.89,1.2a61.1,61.1,0,0,0,11.07.37c2.5-.19,6-.7,6.52,2.5.46,2.75-2.23,3.14-4.23,3.55a64.68,64.68,0,0,1-8.3,1.14,102.82,102.82,0,0,1-16.83-.34,52,52,0,0,1-11.63-2.11,4.74,4.74,0,0,1-2.59-1.58,38.07,38.07,0,0,1-1.93-3.42,7.78,7.78,0,0,1-1.27-3.48,4.11,4.11,0,0,1,.6-1.75.6.6,0,0,1,.24-.28.68.68,0,0,1,.4,0c1.14.14,2.21.57,3.34.7,4.94.56,9.62,2.33,14.43,3.48Z"/><path class="cls-27" d="M1043.42,513.4c0,.18,0,.37,0,.55l.08,2a7.6,7.6,0,0,1-.46-1.42,5.54,5.54,0,0,0-.43-1.58,4.33,4.33,0,0,0-2.77-2.12,11.12,11.12,0,0,0-2.94-.08,38.42,38.42,0,0,1-9.52-1.22l-5.21-1.12-2.61-.56a8.35,8.35,0,0,1-1.32-.27s-.57-.29-.5-.3a8.25,8.25,0,0,1,3.7,0c1.23.27,2.46.49,3.7.7a34.28,34.28,0,0,0,11.69.42c1.2-.21,2.39-.48,3.58-.71a3.23,3.23,0,0,0,1.11-.37c1-.66.93-2.22,1.71-3.16l-.35,3a.65.65,0,0,0,0,.46.68.68,0,0,0,.35.22,7.21,7.21,0,0,0,2.82.11,13.92,13.92,0,0,1,2.73-.13c1.07.11,2.12.27,3.2.33,2.1.12,4.18-.1,6.28-.1.39,0,.8-.05,1.2-.08,1.68-.12,3.36-.26,5-.47.81-.11,1.63-.24,2.45-.34a2.31,2.31,0,0,0,1.12-.32,2.13,2.13,0,0,1-.34.33c-.88.67-2.29.7-3.33.94s-2.15.42-3.23.59a80.92,80.92,0,0,1-10,.95c-1.67.06-3.33.07-5,0-.84,0-1.67-.05-2.5-.09-.22,0-2.44-.09-2.45-.17a3.34,3.34,0,0,0,.86,1.6,5.43,5.43,0,0,1,1.16,2A2.93,2.93,0,0,1,1043.42,513.4Z"/></g></g></svg>