<svg xmlns="http://www.w3.org/2000/svg" xmlns:xlink="http://www.w3.org/1999/xlink" viewBox="0 0 384.15 395.87"><defs><style>.cls-1{fill:url(#Degradado_sin_nombre_53);}.cls-2{fill:url(#Degradado_sin_nombre_3);}.cls-3{fill:none;}.cls-4{fill:url(#Degradado_sin_nombre_54);}</style><linearGradient id="Degradado_sin_nombre_53" x1="1.78" y1="164.79" x2="152.72" y2="194.13" gradientUnits="userSpaceOnUse"><stop offset="0" stop-color="#05c19d"/><stop offset="0.41" stop-color="#05bf9d"/><stop offset="0.63" stop-color="#05b79d"/><stop offset="0.81" stop-color="#05a99d"/><stop offset="0.96" stop-color="#05969d"/><stop offset="1" stop-color="#05909d"/></linearGradient><linearGradient id="Degradado_sin_nombre_3" x1="110.33" y1="183.28" x2="392.17" y2="237.65" gradientUnits="userSpaceOnUse"><stop offset="0" stop-color="#05c19d"/><stop offset="0.6" stop-color="#057ed1"/></linearGradient><linearGradient id="Degradado_sin_nombre_54" x1="137.24" y1="187.99" x2="313.57" y2="220.71" gradientUnits="userSpaceOnUse"><stop offset="0.13" stop-color="#05c19d"/><stop offset="0.72" stop-color="#035892"/></linearGradient></defs><title>logoPDico</title><g id="Capa_2" data-name="Capa 2"><g id="Capa_1-2" data-name="Capa 1"><path class="cls-1" d="M174.65,81.32,168,115H148L116.35,277.31H136l-4.76,24.12a116.49,116.49,0,0,1-37.11-31L67.41,288.77a27,27,0,0,1-9.94,30.37c-12.12,8.7-18.92-.73-27.6-12.85s-16-22.36-3.85-31a27,27,0,0,1,32.79,1l26.73-18.38a116.66,116.66,0,0,1-16.09-70.1L40.36,184.2a27,27,0,0,1-27.61,15.21c-14.82-1.77-13.46-13.29-11.69-28.1S4.35,144,19.15,145.79a27,27,0,0,1,23.57,23.4l29.05,3.56A116.66,116.66,0,0,1,110,108.93L91.35,81.86A27,27,0,0,1,60.81,71.65C52.26,59.44,61.74,52.76,74,44.21s22.55-15.73,31.1-3.5a27,27,0,0,1-1.2,32.54l18.28,26.56A116.52,116.52,0,0,1,174.65,81.32Z"/><path class="cls-2" d="M225.2,392a196.75,196.75,0,0,1-110-9.27l16-81.25a116.82,116.82,0,0,0,23.23,9.27L148.53,338a27,27,0,0,0-24.89,21.32c-3.12,14.59,9.16,17.24,23.74,20.36s25.94,5.52,29.06-9.06a27,27,0,0,0-13.12-29.16l6-27.57A116.65,116.65,0,0,0,242,301l18.62,27.1a27,27,0,0,0-1.5,32.08c8.3,12.38,18.77,5.41,31.15-2.89s22-14.8,13.7-27.19a27,27,0,0,0-30.82-10.61l-18.28-26.6a116.28,116.28,0,0,0,40.8-53.12l30.56,3.73a27,27,0,0,0,20.36,22c14.49,3.51,17.48-8.72,21-23.21s6.17-25.8-8.32-29.28a27,27,0,0,0-31.07,15.46L300.18,225a116.91,116.91,0,0,0-13.32-87l26.65-18.32a27,27,0,0,0,32,1c12.28-8.45,5.18-18.83-3.29-31.09s-15.08-21.82-27.37-13.35a27,27,0,0,0-10.18,31.11l-26.41,18.17A116.71,116.71,0,0,0,213.74,84l6-27.66A27,27,0,0,0,244.3,35.55c3.39-14.53-8.85-17.4-23.38-20.79s-25.82-6-29.21,8.55a27,27,0,0,0,13.21,29.74l-6.17,28.39a115.53,115.53,0,0,0-24.1-.12L190.68,0c90.6,2,171,66.36,189.55,158.91C401.76,266.07,332.36,370.41,225.2,392Z"/><path class="cls-3" d="M190.69,0l-16,81.32M131.24,301.44l-16,81.24"/><path class="cls-4" d="M257.44,126.68Q243,115,217.49,115H168L136,277.31h22.24L169.09,221H196.7c13.5,0,24.67-1.41,33.6-4.2a57.6,57.6,0,0,0,23.06-13.43,59.48,59.48,0,0,0,13.71-20.07,62.22,62.22,0,0,0,4.76-24.18Q271.83,138.36,257.44,126.68ZM221,183.7c-5.22,4.63-12.78,7-22.62,7h-23.1l8.82-45.35h23q10.56,0,16.14,4.66t5.6,13.5Q228.78,176.74,221,183.7Z"/></g></g></svg>